<?xml version="1.0" encoding="UTF-8" standalone="no"?>
<!-- Created with Inkscape (http://www.inkscape.org/) -->

<svg
   width="200mm"
   height="100mm"
   viewBox="0 0 200 100"
   version="1.1"
   id="svg5"
   inkscape:version="1.1 (c68e22c387, 2021-05-23)"
   sodipodi:docname="BlueStar.svg"
   xmlns:inkscape="http://www.inkscape.org/namespaces/inkscape"
   xmlns:sodipodi="http://sodipodi.sourceforge.net/DTD/sodipodi-0.dtd"
   xmlns:xlink="http://www.w3.org/1999/xlink"
   xmlns="http://www.w3.org/2000/svg"
   xmlns:svg="http://www.w3.org/2000/svg">
  <sodipodi:namedview
     id="namedview7"
     pagecolor="#ffffff"
     bordercolor="#666666"
     borderopacity="1.0"
     inkscape:pageshadow="2"
     inkscape:pageopacity="0"
     inkscape:pagecheckerboard="false"
     inkscape:document-units="mm"
     showgrid="false"
     width="200mm"
     showborder="true"
     inkscape:showpageshadow="false"
     borderlayer="false"
     inkscape:snap-bbox="true"
     inkscape:bbox-nodes="false"
     inkscape:snap-to-guides="false"
     inkscape:zoom="1.3416246"
     inkscape:cx="403.61514"
     inkscape:cy="133.79301"
     inkscape:window-width="1680"
     inkscape:window-height="987"
     inkscape:window-x="-8"
     inkscape:window-y="27"
     inkscape:window-maximized="1"
     inkscape:current-layer="layer1"
     inkscape:snap-grids="false"
     inkscape:lockguides="false" />
  <defs
     id="defs2">
    <color-profile
       name="Agfa-:-Swop-Standard"
       xlink:href="../../../../../WINDOWS/system32/spool/drivers/color/RSWOP.icm"
       id="color-profile297" />
    <color-profile
       name="Laptop-Internal-MaxBright-Display"
       xlink:href="../../../../../WINDOWS/system32/spool/drivers/color/TPMB60.icm"
       id="color-profile299" />
  </defs>
  <g
     inkscape:label="Ebene 1"
     inkscape:groupmode="layer"
     id="layer1">
    <g
       id="g88">
      <g
         id="g84">
        <rect
           style="fill:#0b5cd5;fill-rule:evenodd;stroke-width:0.264583"
           id="rect81"
           width="200"
           height="100"
           x="-2.8421709e-14"
           y="0" />
      </g>
    </g>
    <g
       id="g406"
       transform="translate(-12.84721,3.4581642)">
      <g
         id="g430">
        <g
           id="g535">
          <g
             id="g531" />
        </g>
      </g>
    </g>
    <g
       id="g591">
      <g
         id="g423"
         transform="translate(0,3.2609558)">
        <g
           id="g418">
          <g
             id="g414">
            <g
               id="g538">
              <g
                 id="g987">
                <circle
                   style="fill:#ffffff;stroke-width:0.264583"
                   id="path333"
                   cx="24.207363"
                   cy="46.739044"
                   r="12" />
                <circle
                   style="fill:#ffffff;stroke-width:0.264583"
                   id="path333-3"
                   cx="175.79263"
                   cy="46.739044"
                   r="12" />
                <circle
                   style="fill:#ffffff;stroke-width:0.264583"
                   id="path333-2"
                   cx="125.26421"
                   cy="46.739044"
                   r="12" />
                <circle
                   style="fill:#ffffff;stroke-width:0.264583"
                   id="path333-5"
                   cx="74.735786"
                   cy="46.739044"
                   r="12" />
              </g>
            </g>
          </g>
        </g>
      </g>
    </g>
    <path
       sodipodi:type="star"
       style="fill:#ff0000"
       id="path1192"
       inkscape:flatsided="false"
       sodipodi:sides="5"
       sodipodi:cx="154.29054"
       sodipodi:cy="65.592117"
       sodipodi:r1="21.615585"
       sodipodi:r2="10.807792"
       sodipodi:arg1="0.76101275"
       sodipodi:arg2="1.3893313"
       inkscape:rounded="0"
       inkscape:randomized="0"
       d="m 169.94321,80.499417 -13.70218,-4.276968 -11.29123,8.862847 -0.16657,-14.353199 -11.91825,-7.999833 13.59923,-4.593796 3.92535,-13.807016 8.57136,11.514077 14.34425,-0.533372 -8.30185,11.709887 z"
       transform="scale(0.26458333)"
       inkscape:transform-center-x="0.31894762"
       inkscape:transform-center-y="-0.23382396" />
    <path
       sodipodi:type="star"
       style="fill:#ff6600"
       id="path1262"
       inkscape:flatsided="false"
       sodipodi:sides="5"
       sodipodi:cx="357.77521"
       sodipodi:cy="86.462341"
       sodipodi:r1="29.030987"
       sodipodi:r2="14.515493"
       sodipodi:arg1="1.0612041"
       sodipodi:arg2="1.6895226"
       inkscape:rounded="0"
       inkscape:randomized="0"
       d="m 371.93714,111.80475 -15.88126,-10.9291 -18.00646,6.88673 5.48662,-18.481256 -12.11397,-14.997048 19.27217,-0.49294 10.51962,-16.155412 6.42424,18.176599 18.61545,5.012454 -15.30177,11.726696 z"
       transform="scale(0.26458333)"
       inkscape:transform-center-x="-0.28114529"
       inkscape:transform-center-y="-0.46093182" />
    <path
       sodipodi:type="star"
       style="fill:#ff0000"
       id="path1264"
       inkscape:flatsided="false"
       sodipodi:sides="5"
       sodipodi:cx="401.75174"
       sodipodi:cy="301.12747"
       sodipodi:r1="29.8146"
       sodipodi:r2="14.9073"
       sodipodi:arg1="2.4980915"
       sodipodi:arg2="3.1264101"
       inkscape:rounded="0"
       inkscape:randomized="0"
       d="m 377.90006,319.01623 8.9461,-17.66244 -9.47822,-17.38268 19.56248,3.05025 13.60298,-14.38587 3.14418,19.5476 17.88532,8.49174 -17.61926,9.03082 -2.54925,19.63405 -14.03348,-13.96624 z"
       transform="scale(0.26458333)"
       inkscape:transform-center-x="-0.71799415"
       inkscape:transform-center-y="-0.037009605" />
    <path
       sodipodi:type="star"
       style="fill:#ff0000"
       id="path1266"
       inkscape:flatsided="false"
       sodipodi:sides="5"
       sodipodi:cx="162.48956"
       sodipodi:cy="302.61819"
       sodipodi:r1="28.333675"
       sodipodi:r2="14.166838"
       sodipodi:arg1="-1.5444866"
       sodipodi:arg2="-0.91616808"
       inkscape:rounded="0"
       inkscape:randomized="0"
       d="m 163.23493,274.29432 7.88032,17.08569 18.54224,3.19451 -13.81429,12.7744 2.6917,18.62188 -16.41802,-9.19067 -16.87868,8.31444 3.6674,-18.45454 -13.12331,-13.48328 18.6846,-2.21486 z"
       transform="scale(0.26458333)"
       inkscape:transform-center-x="-0.060941056"
       inkscape:transform-center-y="-0.6576577" />
    <path
       sodipodi:type="star"
       style="fill:#ff0000"
       id="path1266-2"
       inkscape:flatsided="false"
       sodipodi:sides="5"
       sodipodi:cx="254.16946"
       sodipodi:cy="304.85429"
       sodipodi:r1="28.333675"
       sodipodi:r2="14.166838"
       sodipodi:arg1="-1.5444866"
       sodipodi:arg2="-0.91616808"
       inkscape:rounded="0"
       inkscape:randomized="0"
       transform="matrix(0.26458333,0,0,0.26458333,0.72790523,1.4465008)"
       inkscape:transform-center-x="-0.060941056"
       inkscape:transform-center-y="-0.6576577"
       d="m 254.91483,276.53041 7.88032,17.08568 18.54225,3.19452 -13.8143,12.77439 2.6917,18.62189 -16.41802,-9.19068 -16.87868,8.31445 3.6674,-18.45455 -13.12331,-13.48327 18.6846,-2.21486 z" />
    <path
       sodipodi:type="star"
       style="fill:#ff6600"
       id="path1268"
       inkscape:flatsided="false"
       sodipodi:sides="5"
       sodipodi:cx="587.3476"
       sodipodi:cy="68.573578"
       sodipodi:r1="23.863323"
       sodipodi:r2="11.931662"
       sodipodi:arg1="0.67474094"
       sodipodi:arg2="1.3030595"
       inkscape:rounded="0"
       inkscape:randomized="0"
       d="m 605.98172,83.480878 -15.47761,-3.400739 -11.57594,10.822154 -1.54855,-15.770967 -13.86964,-7.665143 14.52055,-6.346255 3.00403,-15.559473 10.52275,11.848766 15.72623,-1.95114 -8.01714,13.669195 z"
       transform="scale(0.26458333)"
       inkscape:transform-center-x="0.51616022"
       inkscape:transform-center-y="-0.090541683" />
    <path
       sodipodi:type="star"
       style="fill:#ff0000"
       id="path1270"
       inkscape:flatsided="false"
       sodipodi:sides="5"
       sodipodi:cx="623.87048"
       sodipodi:cy="282.49332"
       sodipodi:r1="43.843685"
       sodipodi:r2="21.921843"
       sodipodi:arg1="2.5252957"
       sodipodi:arg2="3.1536142"
       inkscape:rounded="0"
       inkscape:randomized="0"
       d="m 588.09296,307.83573 13.85726,-25.60594 -13.23766,-25.93168 28.63482,5.26637 20.57183,-20.6031 3.84003,28.86073 25.95176,13.19826 -26.26155,12.57055 -4.53276,28.76008 -20.07057,-21.09171 z"
       transform="scale(0.26458333)"
       inkscape:transform-center-x="-1.0666652"
       inkscape:transform-center-y="0.043091734" />
    <path
       sodipodi:type="star"
       style="fill:#ffb380"
       id="path1272"
       inkscape:flatsided="false"
       sodipodi:sides="5"
       sodipodi:cx="67.082848"
       sodipodi:cy="96.152084"
       sodipodi:r1="7.9233384"
       sodipodi:r2="3.9616692"
       sodipodi:arg1="0.71883"
       sodipodi:arg2="1.3471485"
       inkscape:rounded="0"
       inkscape:randomized="0"
       d="m 73.045767,101.36964 -5.084268,-1.35455 -3.998197,3.42038 -0.282871,-5.254005 -4.488489,-2.745555 4.909446,-1.892603 1.224158,-5.11723 3.317074,4.084314 5.245061,-0.417067 -2.859381,4.416847 z"
       transform="scale(0.26458333)"
       inkscape:transform-center-x="0.14367852"
       inkscape:transform-center-y="-0.058555259" />
    <path
       sodipodi:type="star"
       style="fill:#ff0000"
       id="path1274"
       inkscape:flatsided="false"
       sodipodi:sides="5"
       sodipodi:cx="80.49942"
       sodipodi:cy="261.62311"
       sodipodi:r1="13.437259"
       sodipodi:r2="6.7186294"
       sodipodi:arg1="2.5535901"
       sodipodi:arg2="3.1819086"
       inkscape:rounded="0"
       inkscape:randomized="0"
       d="m 69.318945,269.07676 4.467305,-7.72445 -3.830629,-8.05916 8.726856,1.86167 6.480993,-6.13356 0.926188,8.87502 7.836102,4.26842 -8.15444,3.62339 -1.638015,8.77159 -5.965909,-6.63565 z"
       transform="scale(0.26458333)"
       inkscape:transform-center-x="-0.29710893"
       inkscape:transform-center-y="0.044279832" />
    <path
       sodipodi:type="star"
       style="fill:#ffff00"
       id="path1276"
       inkscape:flatsided="false"
       sodipodi:sides="5"
       sodipodi:cx="172.17931"
       sodipodi:cy="173.67004"
       sodipodi:r1="7.7818389"
       sodipodi:r2="3.8909194"
       sodipodi:arg1="0.29145679"
       sodipodi:arg2="0.91977533"
       inkscape:rounded="0"
       inkscape:randomized="0"
       d="m 179.63296,175.90614 -5.09576,0.859 -2.18124,4.68474 -2.39163,-4.58091 -5.1295,-0.62682 3.61765,-3.69015 -0.98896,-5.07214 4.62746,2.30027 4.51828,-2.50794 -0.75772,5.1118 z"
       transform="scale(0.26458333)"
       inkscape:transform-center-x="-0.014442609"
       inkscape:transform-center-y="0.18282421" />
    <path
       sodipodi:type="star"
       style="fill:#ff0000"
       id="path1394"
       inkscape:flatsided="false"
       sodipodi:sides="5"
       sodipodi:cx="359.26593"
       sodipodi:cy="229.57242"
       sodipodi:r1="23.570511"
       sodipodi:r2="11.785255"
       sodipodi:arg1="1.2490458"
       sodipodi:arg2="1.8773643"
       inkscape:rounded="0"
       inkscape:randomized="0"
       d="m 366.71958,251.93337 -11.0103,-11.12518 -15.40657,2.76298 7.1783,-13.90929 -7.38865,-13.79871 15.44675,2.52877 10.84013,-11.29106 2.3683,15.47216 14.08822,6.82045 -13.98305,7.03355 z"
       transform="scale(0.26458333)"
       inkscape:transform-center-x="-0.58158809"
       inkscape:transform-center-y="-0.014630121" />
    <path
       sodipodi:type="star"
       style="fill:#ffb380"
       id="path1396"
       inkscape:flatsided="false"
       sodipodi:sides="5"
       sodipodi:cx="573.18567"
       sodipodi:cy="131.9296"
       sodipodi:r1="9.7183704"
       sodipodi:r2="4.8591852"
       sodipodi:arg1="1.6475682"
       sodipodi:arg2="2.2758867"
       inkscape:rounded="0"
       inkscape:randomized="0"
       d="m 572.4403,141.61934 -2.40388,-5.98922 -6.29658,-1.41511 4.95325,-4.137 -0.5999,-6.4257 5.46516,3.43241 5.92582,-2.55618 -1.57559,6.25835 4.26225,4.84589 -6.43892,0.43546 z"
       transform="scale(0.26458333)"
       inkscape:transform-center-x="0.060943508"
       inkscape:transform-center-y="0.18685652" />
    <path
       sodipodi:type="star"
       style="fill:#ffb380"
       id="path1422"
       inkscape:flatsided="false"
       sodipodi:sides="5"
       sodipodi:cx="693.93481"
       sodipodi:cy="58.13847"
       sodipodi:r1="16.414961"
       sodipodi:r2="8.2074804"
       sodipodi:arg1="1.6162196"
       sodipodi:arg2="2.2445381"
       inkscape:rounded="0"
       inkscape:randomized="0"
       d="m 693.18945,74.536499 -4.3754,-9.983944 -10.70502,-2.0557 8.14322,-7.246462 -1.35294,-10.816322 9.40819,5.505384 9.86885,-4.629155 -2.32864,10.648977 7.45223,7.955347 -10.84737,1.076045 z"
       transform="scale(0.26458333)"
       inkscape:transform-center-x="0.060943911"
       inkscape:transform-center-y="0.35634467" />
    <path
       sodipodi:type="star"
       style="fill:#ff0000"
       id="path1424"
       inkscape:flatsided="false"
       sodipodi:sides="5"
       sodipodi:cx="713.31427"
       sodipodi:cy="342.12253"
       sodipodi:r1="23.21426"
       sodipodi:r2="11.60713"
       sodipodi:arg1="1.4743226"
       sodipodi:arg2="2.1026411"
       inkscape:rounded="0"
       inkscape:randomized="0"
       d="m 715.55036,365.22884 -8.12235,-13.10244 -15.39816,-0.73698 9.95122,-11.77369 -4.05739,-14.87226 14.27254,5.8259 12.89056,-8.45459 -1.1303,15.3743 12.02419,9.64704 -14.97111,3.67594 z"
       transform="scale(0.26458333)"
       inkscape:transform-center-x="-0.18282242"
       inkscape:transform-center-y="0.40991382" />
    <path
       sodipodi:type="star"
       style="fill:#ffff00"
       id="path1426"
       inkscape:flatsided="false"
       sodipodi:sides="5"
       sodipodi:cx="512.06573"
       sodipodi:cy="339.88644"
       sodipodi:r1="8.0278263"
       sodipodi:r2="4.0139136"
       sodipodi:arg1="2.7610863"
       sodipodi:arg2="3.3894048"
       inkscape:rounded="0"
       inkscape:randomized="0"
       d="m 504.61209,342.8679 3.56235,-3.966 -1.24755,-5.18298 4.87273,2.16244 4.54379,-2.78811 -0.55085,5.30246 4.05576,3.45983 -5.21316,1.11466 -2.03719,4.92641 -2.67107,-4.61357 z"
       transform="scale(0.26458333)"
       inkscape:transform-center-x="-0.043514014"
       inkscape:transform-center-y="0.16099344" />
    <path
       sodipodi:type="star"
       style="fill:#ff6600"
       id="path1428"
       inkscape:flatsided="false"
       sodipodi:sides="5"
       sodipodi:cx="82.735512"
       sodipodi:cy="350.32156"
       sodipodi:r1="26.719023"
       sodipodi:r2="13.359511"
       sodipodi:arg1="0.52606642"
       sodipodi:arg2="1.1543849"
       inkscape:rounded="0"
       inkscape:randomized="0"
       d="m 105.84183,363.73813 -17.702648,-1.19867 -11.023343,13.90346 -4.330407,-17.20662 -16.629384,-6.18742 15.026306,-9.4356 0.745818,-17.7275 13.617175,11.3751 17.090323,-4.76878 -6.610426,16.4658 z"
       transform="scale(0.26458333)"
       inkscape:transform-center-x="0.45946887"
       inkscape:transform-center-y="0.22298639" />
    <path
       sodipodi:type="star"
       style="fill:#ff0000"
       id="path1430"
       inkscape:flatsided="false"
       sodipodi:sides="5"
       sodipodi:cx="234.78996"
       sodipodi:cy="91.679893"
       sodipodi:r1="14.337382"
       sodipodi:r2="7.1686912"
       sodipodi:arg1="1.7273982"
       sodipodi:arg2="2.3557167"
       inkscape:rounded="0"
       inkscape:randomized="0"
       d="m 232.55387,105.84183 -2.83051,-9.090485 -9.09319,-2.821826 7.77089,-5.501091 -0.12624,-9.520124 7.63319,5.690622 9.01517,-3.061935 -3.05332,9.018089 5.69791,7.627745 -9.52024,-0.117137 z"
       transform="scale(0.26458333)"
       inkscape:transform-center-x="0.18282558"
       inkscape:transform-center-y="0.18393078" />
    <path
       sodipodi:type="star"
       style="fill:#ffff00"
       id="path1432"
       inkscape:flatsided="false"
       sodipodi:sides="5"
       sodipodi:cx="487.46872"
       sodipodi:cy="46.957996"
       sodipodi:r1="6.8719258"
       sodipodi:r2="3.4359629"
       sodipodi:arg1="1.3521274"
       sodipodi:arg2="1.9804459"
       inkscape:rounded="0"
       inkscape:randomized="0"
       d="m 488.95945,53.666281 -2.85923,-3.556612 -4.5508,0.33907 2.49899,-3.818345 -1.72875,-4.223285 4.40369,1.196745 3.48237,-2.949203 0.22265,4.557974 3.88097,2.400577 -4.26609,1.620238 z"
       transform="scale(0.26458333)"
       inkscape:transform-center-x="-0.12188157"
       inkscape:transform-center-y="0.05356994" />
    <path
       sodipodi:type="star"
       style="fill:#ff0000"
       id="path1434"
       inkscape:flatsided="false"
       sodipodi:sides="5"
       sodipodi:cx="451.69119"
       sodipodi:cy="95.406723"
       sodipodi:r1="7.4908257"
       sodipodi:r2="3.7454128"
       sodipodi:arg1="1.670465"
       sodipodi:arg2="2.2987835"
       inkscape:rounded="0"
       inkscape:randomized="0"
       d="m 450.94583,102.86037 -1.74672,-4.657639 -4.82709,-1.201588 3.88992,-3.100514 -0.34888,-4.96215 4.15082,2.741419 4.61147,-1.86519 -1.32457,4.794805 3.19892,3.809399 -4.96944,0.221933 z"
       transform="scale(0.26458333)"
       inkscape:transform-center-x="0.060943103"
       inkscape:transform-center-y="0.13036067" />
    <path
       sodipodi:type="star"
       style="fill:#ff0000"
       id="path1436"
       inkscape:flatsided="false"
       sodipodi:sides="5"
       sodipodi:cx="401.00638"
       sodipodi:cy="28.32387"
       sodipodi:r1="19.090658"
       sodipodi:r2="9.5453291"
       sodipodi:arg1="0.89605538"
       sodipodi:arg2="1.5243739"
       inkscape:rounded="0"
       inkscape:randomized="0"
       d="m 412.93222,43.231169 -11.48288,-5.372254 -10.93536,6.413711 1.56091,-12.580987 -9.47901,-8.418195 12.44758,-2.403224 5.077,-11.6164416 6.13212,11.0957126 12.61677,1.23884 -8.65772,9.260752 z"
       transform="scale(0.26458333)"
       inkscape:transform-center-x="0.0724345"
       inkscape:transform-center-y="-0.4129267" />
    <path
       sodipodi:type="star"
       style="fill:#ffb380"
       id="path1438"
       inkscape:flatsided="false"
       sodipodi:sides="5"
       sodipodi:cx="252.67873"
       sodipodi:cy="46.957996"
       sodipodi:r1="11.180475"
       sodipodi:r2="5.5902376"
       sodipodi:arg1="0.64350111"
       sodipodi:arg2="1.2718196"
       inkscape:rounded="0"
       inkscape:randomized="0"
       d="m 261.62311,53.666282 -7.29782,-1.36604 -5.26256,5.23734 -0.95597,-7.362767 -6.60722,-3.386561 6.707,-3.1844 1.17906,-7.330349 5.10112,5.394699 7.33593,-1.143845 -3.55433,6.518508 z"
       transform="scale(0.26458333)"
       inkscape:transform-center-x="0.26924915"
       inkscape:transform-center-y="-0.013878382" />
    <path
       sodipodi:type="star"
       style="fill:#ff6600"
       id="path1440"
       inkscape:flatsided="false"
       sodipodi:sides="5"
       sodipodi:cx="464.3624"
       sodipodi:cy="266.84067"
       sodipodi:r1="24.449789"
       sodipodi:r2="12.224895"
       sodipodi:arg1="0.9151007"
       sodipodi:arg2="1.5434192"
       inkscape:rounded="0"
       inkscape:randomized="0"
       d="m 479.2697,286.22016 -14.57266,-7.15918 -14.15902,7.94596 2.30558,-16.07173 -11.93244,-11.01059 15.99759,-2.7737 6.78437,-14.75088 7.58147,14.35749 16.1254,1.89404 -11.31198,11.64712 z"
       transform="scale(0.26458333)"
       inkscape:transform-center-x="0.05472243"
       inkscape:transform-center-y="-0.56546194" />
    <path
       sodipodi:type="star"
       style="fill:#ff0000"
       id="path1442"
       inkscape:flatsided="false"
       sodipodi:sides="5"
       sodipodi:cx="523.99158"
       sodipodi:cy="283.23871"
       sodipodi:r1="6.8719258"
       sodipodi:r2="3.4359629"
       sodipodi:arg1="0.70862627"
       sodipodi:arg2="1.3369448"
       inkscape:rounded="0"
       inkscape:randomized="0"
       d="m 529.20913,287.7109 -4.42135,-1.12975 -3.4372,3.00173 -0.29181,-4.55407 -3.91697,-2.34138 4.241,-1.68482 1.01637,-4.44878 2.9129,3.51279 4.54513,-0.40812 -2.44073,3.85585 z"
       transform="scale(0.26458333)"
       inkscape:transform-center-x="0.13019783"
       inkscape:transform-center-y="-0.045073667" />
    <path
       sodipodi:type="star"
       style="fill:#ffb380"
       id="path1444"
       inkscape:flatsided="false"
       sodipodi:sides="5"
       sodipodi:cx="325.72449"
       sodipodi:cy="346.59473"
       sodipodi:r1="24.608335"
       sodipodi:r2="12.304168"
       sodipodi:arg1="0.95758898"
       sodipodi:arg2="1.5859075"
       inkscape:rounded="0"
       inkscape:randomized="0"
       d="m 339.88642,366.71958 -14.34786,-7.82209 -14.57767,7.38496 3.00552,-16.06278 -11.52826,-11.58212 16.20537,-2.10525 7.45281,-14.5431 7.00996,14.76167 16.13435,2.59398 -11.87298,11.22846 z"
       transform="scale(0.26458333)"
       inkscape:transform-center-x="-0.030401393"
       inkscape:transform-center-y="-0.59275661" />
    <path
       sodipodi:type="star"
       style="fill:#ffb380"
       id="path1578"
       inkscape:flatsided="false"
       sodipodi:sides="5"
       sodipodi:cx="181.70165"
       sodipodi:cy="236.57573"
       sodipodi:r1="26.946926"
       sodipodi:r2="13.473463"
       sodipodi:arg1="-0.60200881"
       sodipodi:arg2="0.026309716"
       inkscape:rounded="0"
       inkscape:randomized="0"
       d="m 203.91129,221.3157 -8.74084,15.61447 7.9075,16.05258 -17.55131,-3.4879 -12.82336,12.481 -2.10646,-17.77011 -15.83278,-8.33889 16.24945,-7.49463 3.03817,-17.63473 12.14917,13.13818 z"
       transform="scale(0.26458333)"
       inkscape:transform-center-x="0.62546917"
       inkscape:transform-center-y="-0.057959922" />
  </g>
</svg>
