<?xml version="1.0" encoding="UTF-8" standalone="no"?>
<!-- Created with Inkscape (http://www.inkscape.org/) -->

<svg
   width="200mm"
   height="100mm"
   viewBox="0 0 200 100"
   version="1.1"
   id="svg5"
   inkscape:version="1.1 (c68e22c387, 2021-05-23)"
   sodipodi:docname="Kaligrafeshit.svg"
   xmlns:inkscape="http://www.inkscape.org/namespaces/inkscape"
   xmlns:sodipodi="http://sodipodi.sourceforge.net/DTD/sodipodi-0.dtd"
   xmlns:xlink="http://www.w3.org/1999/xlink"
   xmlns="http://www.w3.org/2000/svg"
   xmlns:svg="http://www.w3.org/2000/svg">
  <sodipodi:namedview
     id="namedview7"
     pagecolor="#ffffff"
     bordercolor="#666666"
     borderopacity="1.0"
     inkscape:pageshadow="2"
     inkscape:pageopacity="0"
     inkscape:pagecheckerboard="false"
     inkscape:document-units="mm"
     showgrid="false"
     width="200mm"
     showborder="true"
     inkscape:showpageshadow="false"
     borderlayer="false"
     inkscape:snap-bbox="true"
     inkscape:bbox-nodes="false"
     inkscape:snap-to-guides="false"
     inkscape:zoom="1.3416246"
     inkscape:cx="403.61514"
     inkscape:cy="133.79301"
     inkscape:window-width="1920"
     inkscape:window-height="1137"
     inkscape:window-x="1672"
     inkscape:window-y="-8"
     inkscape:window-maximized="1"
     inkscape:current-layer="layer1"
     inkscape:snap-grids="false"
     inkscape:lockguides="false" />
  <defs
     id="defs2">
    <color-profile
       name="Agfa-:-Swop-Standard"
       xlink:href="../../../../../WINDOWS/system32/spool/drivers/color/RSWOP.icm"
       id="color-profile163" />
    <color-profile
       name="Laptop-Internal-MaxBright-Display"
       xlink:href="../../../../../WINDOWS/system32/spool/drivers/color/TPMB60.icm"
       id="color-profile165" />
  </defs>
  <g
     inkscape:label="Ebene 1"
     inkscape:groupmode="layer"
     id="layer1">
    <g
       id="g88"
       style="fill:#d40000">
      <g
         id="g84"
         style="fill:#d40000">
        <rect
           style="fill:#d40000;fill-rule:evenodd;stroke-width:0.264583"
           id="rect81"
           width="200"
           height="100"
           x="-2.8421709e-14"
           y="0" />
      </g>
    </g>
    <g
       id="g406"
       transform="translate(-12.84721,3.4581642)">
      <g
         id="g430">
        <g
           id="g535">
          <g
             id="g531" />
        </g>
      </g>
    </g>
    <g
       id="g591"
       style="fill:#ffffff">
      <g
         id="g423"
         transform="translate(0,3.2609558)"
         style="fill:#ffffff">
        <g
           id="g418"
           style="fill:#ffffff">
          <g
             id="g414"
             style="fill:#ffffff">
            <g
               id="g538"
               style="fill:#ffffff">
              <g
                 id="g987"
                 style="fill:#ffffff">
                <circle
                   style="fill:#ffffff;stroke-width:0.264583"
                   id="path333"
                   cx="24.207363"
                   cy="46.739044"
                   r="12" />
                <circle
                   style="fill:#ffffff;stroke-width:0.264583"
                   id="path333-3"
                   cx="175.79263"
                   cy="46.739044"
                   r="12" />
                <circle
                   style="fill:#ffffff;stroke-width:0.264583"
                   id="path333-2"
                   cx="125.26421"
                   cy="46.739044"
                   r="12" />
                <circle
                   style="fill:#ffffff;stroke-width:0.264583"
                   id="path333-5"
                   cx="74.735786"
                   cy="46.739044"
                   r="12" />
              </g>
            </g>
          </g>
        </g>
      </g>
    </g>
    <path
       style="fill:#917c6f;stroke-width:0.264583"
       id="path60"
       d="m 15.948942,7.747196 c -0.143459,0.2162434 -0.282288,0.4356303 -0.430377,0.64873 -0.409654,0.5894906 -0.851331,1.1563069 -1.26044,1.746176 -0.558909,0.805857 -1.050272,1.650457 -1.548113,2.49433 -0.271107,0.571214 -0.657435,1.12494 -0.79457,1.754092 -0.119473,0.548122 -0.06483,1.130348 -0.01414,1.681232 0.161535,0.81735 0.458152,1.598667 0.797181,2.35703 0.338472,0.709942 0.78578,1.341742 1.284248,1.946116 0.692728,0.707057 1.38465,1.431782 2.223226,1.970465 0.790042,0.507507 1.310592,0.71656 2.179619,1.12946 2.016059,0.847408 4.150102,1.784079 6.374436,1.858942 0.449732,0.01514 0.898817,-0.0456 1.348226,-0.0684 1.710727,-0.524023 1.768502,-0.452181 3.464052,-1.400155 1.734569,-0.969788 3.443484,-1.985307 5.144654,-3.012552 0.733898,-0.443162 1.436417,-0.936367 2.15901,-1.397737 0.738722,-0.47167 1.479775,-0.93975 2.224847,-1.401328 0.207301,-0.128424 -0.407582,0.267847 -0.611375,0.40177 3.239021,-1.757251 6.776826,-3.004624 10.488647,-3.167291 0.842552,-0.03692 1.693539,-0.0284 2.528453,0.09065 0.741447,0.105726 1.447226,0.386292 2.170838,0.579438 0.594436,0.414974 1.258794,0.744482 1.783312,1.244921 0.517933,0.494156 0.978165,1.068109 1.307301,1.703809 0.691224,1.335048 0.806731,2.451859 -0.0028,3.781562 -0.835671,1.372638 -2.679197,2.584318 -3.890238,3.510627 -0.75416,0.467276 -1.497777,0.952019 -2.262484,1.401827 -0.349181,0.205393 1.412095,-0.749221 1.01518,-0.66815 -0.614852,0.125585 -1.132446,0.541145 -1.700376,0.808104 -2.599481,1.221896 -1.870774,0.764548 -5.692206,3.114868 -0.304089,0.187026 -0.549468,0.455941 -0.824201,0.683911 -0.992354,1.044427 -1.423191,2.21085 -1.275646,3.653755 0.02985,0.291947 0.101716,0.578057 0.152574,0.867085 0.519967,1.903196 1.348222,3.728588 2.411489,5.390227 0.328105,0.512751 0.686039,1.005792 1.029058,1.508688 2.021075,2.893999 3.904982,5.878759 5.970841,8.741484 1.502955,2.159087 3.729458,3.50796 5.892382,4.907939 2.285442,1.47928 1.435089,0.915646 3.55532,2.373056 0.455991,0.532156 0.994976,1.003181 1.367975,1.596469 0.820444,1.304994 1.536885,3.300246 1.467329,4.859525 -0.04174,0.935739 -0.332097,1.856523 -0.677966,2.726997 -0.787461,1.981846 -1.811763,2.990607 -3.127399,4.605787 -2.052944,2.071579 -4.434855,3.789958 -6.921515,5.302192 -0.370832,0.225518 -1.481786,0.900771 -1.13088,0.645351 0.696759,-0.507162 1.447761,-0.935273 2.171639,-1.402908 -0.483401,0.106299 -0.961493,0.240559 -1.450205,0.318894 -0.945025,0.151479 -2.180481,0.215101 -3.139858,0.246676 -0.850074,0.02798 -1.936784,0.0304 -2.78226,-0.01847 -0.593119,-0.03428 -1.184175,-0.09798 -1.776259,-0.146965 -3.24522,-0.395229 -6.502305,-0.711033 -9.736302,-1.19135 -1.247211,-0.217771 -1.970116,-0.332857 -3.193494,-0.587986 -0.419436,-0.08747 -0.843888,-0.158332 -1.253921,-0.282636 -0.279387,-0.0847 -0.589547,-0.146386 -0.806323,-0.341934 -0.361551,-0.326144 0.3038,-1.126739 0.359468,-1.225315 0.245295,-0.339159 0.473035,-0.691735 0.735888,-1.017476 0.655331,-0.812115 1.19688,-1.312053 1.939976,-2.045936 0.498472,-0.492297 1.557874,-1.540386 2.071348,-2.00859 0.392883,-0.358243 0.801058,-0.699346 1.201587,-1.04902 0.470797,-0.369538 0.934924,-0.747736 1.412391,-1.108617 1.472988,-1.113314 1.542042,-1.07424 3.051267,-2.228982 1.471491,-1.125871 2.896717,-2.311106 4.359207,-3.448643 0.966102,-0.75144 1.94256,-1.489469 2.91384,-2.234202 1.067795,-0.852551 2.155703,-1.680501 3.203382,-2.557656 2.150462,-1.800439 4.622398,-4.074713 6.64578,-5.999808 2.418329,-2.300854 4.214884,-4.09585 6.507689,-6.516177 1.060066,-1.119023 2.09305,-2.263396 3.139572,-3.395093 1.109819,-1.154817 2.196444,-2.332382 3.329456,-3.464452 2.856897,-2.854518 4.165801,-4.041216 7.358324,-6.562799 2.757919,-2.178317 5.023342,-3.722648 7.862668,-5.759117 1.151332,-0.825779 2.297711,-1.658444 3.446568,-2.487666 2.640981,-1.868512 5.156304,-3.908499 7.549256,-6.084427 1.269349,-1.154228 2.474457,-2.377687 3.715012,-3.562321 -0.69841,0.49783 -2.121376,0.636217 -2.095214,1.49349 0.02193,0.719095 1.448894,0.04435 2.147394,0.216619 0.94956,0.23418 1.87555,0.57763 2.76061,0.993786 1.67381,0.787031 3.65089,2.147901 5.03052,3.388078 0.66547,0.598208 1.23321,1.29693 1.84982,1.945395 0.76433,1.037743 1.90776,2.402552 2.34299,3.672906 0.4762,1.389902 0.53147,3.241649 0.17449,4.649984 -0.59378,2.342488 -1.61435,3.502104 -2.93048,5.504227 -2.21993,2.76855 -4.39879,5.567103 -6.42997,8.478097 -1.07332,1.53825 -2.44204,3.48901 -3.22893,5.221652 -0.37494,0.825572 -0.60031,1.711204 -0.900461,2.566808 -0.145476,0.839848 -0.375603,1.669362 -0.436425,2.519545 -0.218268,3.051029 0.662374,6.0443 1.401406,8.963157 1.28535,5.076637 0.51755,1.645936 1.57532,6.765346 0.18579,2.539322 0.52442,4.268446 -0.11614,6.781781 -0.48835,1.916128 -1.67072,3.917034 -2.954619,5.404472 -1.389893,1.610238 -2.536915,2.288989 -4.225872,3.499519 0.271256,-0.171043 1.116891,-0.617773 0.813768,-0.513122 -7.963352,2.749298 3.646152,-0.696627 -4.677868,1.829289 -1.892945,0.574413 -3.431055,0.917908 -5.389009,1.271873 -0.923724,0.166995 -1.854875,0.289912 -2.782313,0.43487 -3.332467,0.466452 -6.706296,0.562017 -10.066896,0.511307 -0.733719,-0.01106 -4.278244,-0.123796 -5.192268,-0.304118 -0.613357,-0.121004 -1.182571,-0.406101 -1.773856,-0.60915 -0.397735,-0.330954 -0.896798,-0.568751 -1.193205,-0.992857 -1.23149,-1.762043 0.407511,-4.477049 1.754732,-5.62388 0.569177,-0.484513 1.254057,-0.813758 1.881085,-1.220636 -0.05343,0.21641 -0.382792,0.662638 -0.160285,0.649237 1.255496,-0.07562 2.436344,-0.635704 3.673798,-0.860851 1.384789,-0.251952 2.783827,-0.425971 4.184081,-0.568836 2.908564,-0.296749 5.886328,-0.401026 8.808156,-0.323903 1.607146,0.04242 3.210375,0.17988 4.815562,0.26982 5.314069,0.421682 10.575109,1.329028 15.887089,1.770271 3.9124,0.324985 7.50127,0.55408 11.41283,0.07177 1.77858,-0.219307 3.51266,-0.712044 5.26899,-1.068067 1.68725,-0.607242 3.41742,-1.106384 5.06176,-1.821728 1.63158,-0.709789 3.2065,-1.551085 4.74515,-2.444609 5.09871,-2.960926 6.90648,-3.920493 10.68948,-7.783052 3.1685,-3.235137 4.81263,-5.651199 7.56161,-9.276257 3.09264,-4.355704 5.99934,-8.854223 8.47173,-13.594419 1.1315,-2.16938 2.18154,-4.387937 2.91712,-6.728209 0.30708,-0.976966 0.48854,-1.989063 0.73281,-2.983595 0.32124,-2.719017 1.08647,-6.096859 -0.69009,-8.522623 -1.08773,-1.48522 -2.10873,-1.826771 -3.70196,-2.754622 -0.8233,-0.374126 -1.63101,-0.784629 -2.46989,-1.122376 -1.9909,-0.801571 -4.05225,-1.415875 -6.12171,-1.974076 -2.49626,-0.673322 -4.24204,-1.061641 -6.79206,-1.508965 -1.11769,-0.196064 -2.243,-0.34584 -3.36451,-0.51876 -2.68751,-0.18137 -4.23797,-0.395929 -6.934,-0.138373 -2.46979,0.235942 -5.09696,0.857944 -7.46613,1.561667 -1.25922,0.374033 -2.51023,0.782035 -3.73493,1.257072 -1.23269,0.478136 -2.4198,1.066351 -3.62971,1.599527 -3.98162,2.215682 -5.25829,2.83633 -9.5686,5.814371 -1.68413,1.163582 -3.98299,3.238558 -5.44741,4.711025 -0.68936,0.693137 -1.37669,1.393746 -1.98382,2.159931 -0.582263,0.734793 -1.049668,1.553702 -1.574498,2.330556 -0.441544,0.867455 -0.948108,1.704777 -1.324631,2.60237 -1.904711,4.54066 -2.268148,9.311664 -1.040336,14.097447 0.353025,1.376022 0.936151,2.682513 1.404226,4.023768 0.660566,1.288785 1.221605,2.633646 1.981697,3.866356 1.562252,2.533642 3.489552,4.756946 5.651022,6.790962 1.744,1.641166 4.04425,3.427283 6.18226,4.557644 1.07874,0.570328 2.24475,0.95754 3.36713,1.436312 3.71242,1.224407 7.58643,1.728885 11.46607,2.041861 1.37209,0.110688 2.74809,0.166158 4.12209,0.249841 5.53634,0.337179 2.89941,0.146354 8.31288,0.60231 3.32414,0.479208 4.5611,0.54206 7.80442,1.473682 3.97705,1.142378 7.7524,2.867919 11.37042,4.857562 0.94501,0.519687 1.85688,1.097484 2.78533,1.646227 0.70972,0.471122 1.46193,0.883798 2.12917,1.41337 0.89988,0.714203 1.92215,1.494977 1.55123,2.841953 -0.16086,0.584157 -0.57379,1.089884 -1.00763,1.51285 -4.36932,4.2598 -1.97516,1.387843 -1.62178,0.951153 -0.9664,0.307203 -1.90884,0.703601 -2.89917,0.921605 -2.28121,0.502163 -4.75881,0.596196 -7.08139,0.61282 -3.88702,0.02782 -7.7534,-0.283411 -11.62209,-0.610775 -6.45714,-0.855189 -12.81613,-2.549737 -18.79939,-5.137279 -0.71801,-0.310513 -1.41674,-0.663816 -2.12511,-0.995725 -0.50541,-0.328602 -1.06975,-0.580756 -1.51624,-0.985811 -0.32986,-0.299252 -0.66339,-0.658477 -0.77227,-1.090338 -0.25091,-0.995145 0.70693,-2.119183 1.28442,-2.679753 3.80193,-3.690551 2.38614,-2.019506 1.85064,-1.37701 1.285,-0.494361 2.54878,-1.047856 3.85499,-1.48308 1.50768,-0.502351 3.04371,-0.917077 4.57907,-1.327102 5.54695,-1.481336 11.19463,-2.4555 16.85647,-3.368323 1.14875,-0.181129 2.29793,-0.359511 3.44625,-0.543388 6.57404,-1.052687 -0.0208,-0.01881 5.96214,-0.952252 1.46676,-0.228843 3.38228,-0.515183 4.8548,-0.788408 0.78607,-0.145851 1.56752,-0.31555 2.35128,-0.473326 0.88019,-0.217567 1.76249,-0.426757 2.64056,-0.652703 2.09526,-0.539152 4.1855,-1.097669 6.2807,-1.636996 2.1263,-0.54733 4.48164,-1.12658 6.57516,-1.81283 0.94223,-0.308861 1.86203,-0.682368 2.79305,-1.023551 3.19022,-1.467969 6.37676,-3.080049 9.14646,-5.260951 1.33722,-1.052949 2.44159,-2.304505 3.55342,-3.58136 0.30243,-0.353341 0.60501,-0.706544 0.90727,-1.060019 0.6651,-0.777785 0.91989,-1.030264 1.48403,-1.87103 0.70818,-1.055457 1.26145,-2.181892 1.80289,-3.327813 0.98439,-2.399122 1.4853,-4.901538 1.77659,-7.464901 0.12348,-1.202634 0.17659,-2.409925 -0.0116,-3.608853 -0.0446,-0.284192 -0.39758,-2.014942 -0.45359,-2.292072 -0.58817,-2.161135 -1.2953,-4.302625 -2.16996,-6.366465 -0.65145,-1.537145 -0.9371,-2.026857 -1.69815,-3.509608 -1.06138,-1.804892 -2.2642,-3.536226 -3.58824,-5.159307 -0.82303,-1.008908 -1.53765,-1.825661 -2.60426,-2.58595 -0.51951,-0.37031 -1.09855,-0.649042 -1.64783,-0.973563 -0.77496,-0.254659 -1.53439,-0.562565 -2.32486,-0.763979 -2.22174,-0.566109 -3.68307,-0.68965 -6.0015,-0.733275 -2.32419,-0.04373 -4.08892,0.07116 -6.38168,0.533889 -1.16103,0.234323 -2.29347,0.592976 -3.4402,0.889464 -1.2224,0.459126 -2.4656,0.866279 -3.66719,1.377378 -1.23325,0.524561 -2.45294,1.087511 -3.63079,1.726818 -4.33563,2.353256 -6.04028,3.190945 -9.33402,6.13484 -2.76726,2.473322 -2.92549,2.955465 -5.22119,5.90513 -2.09326,3.573703 -2.83919,4.604363 -4.50949,8.478292 -0.70224,1.628709 -1.30657,3.298558 -1.90706,4.967462 -1.11215,3.090902 -2.22547,6.823742 -3.32979,9.925293 -0.56493,1.586643 -1.19085,3.150897 -1.78628,4.726345 -1.28955,2.960526 -2.29628,5.518279 -3.91576,8.308366 -1.32878,2.289281 -3.22095,4.91327 -5.03487,6.846245 -2.8793,3.068291 -3.64157,3.305664 -7.16666,5.739003 -5.31827,2.714386 -10.89563,4.920556 -16.69052,6.382324 -3.901033,0.984041 -5.683171,1.171826 -9.636993,1.791888 -5.391851,0.746106 -10.827925,1.110943 -16.267329,0.787736 -3.133008,-0.186161 -4.628153,-0.43791 -7.760177,-0.845527 -7.101522,-1.188437 -14.062635,-3.06021 -20.962384,-5.091596 -5.293018,-1.648804 -10.48163,-3.637143 -15.607786,-5.744845 -2.309038,-0.949399 -4.601679,-1.93833 -6.910079,-2.889277 -2.621566,-0.989099 -5.227825,-2.057828 -7.928607,-2.821527 -1.07786,-0.304784 -2.518467,-0.63569 -3.65611,-0.712647 -0.567939,-0.03842 -1.138442,0.0086 -1.707663,0.01296 -0.490222,0.05243 -0.980443,0.104863 -1.470665,0.157295 0,0 -2.9882917,2.228279 -2.9882917,2.228279 v 0 c 0.4930439,-0.07017 0.9860878,-0.140343 1.4791317,-0.210513 0.5611109,-0.02069 1.122226,-0.08291 1.683332,-0.0621 1.159646,0.04301 2.607159,0.322543 3.714557,0.597969 2.760728,0.68663 5.435434,1.688734 8.101397,2.666425 3.726118,1.480037 7.454558,2.95446 11.179732,4.436753 2.648911,1.054034 5.312519,2.16839 7.98762,3.160541 1.078574,0.400023 2.170719,0.762468 3.256076,1.143704 6.980921,1.960009 14.025412,3.6988 21.158618,5.01547 3.466841,0.47715 4.310682,0.661895 7.779531,0.871315 2.643232,0.159576 5.363329,0.204026 8.008699,0.05988 2.810248,-0.153128 5.635413,-0.551778 8.424439,-0.894644 3.919074,-0.609071 5.823482,-0.814411 9.690502,-1.783442 3.37559,-0.845887 6.64684,-1.931276 9.87615,-3.226975 1.6717,-0.670735 3.34296,-1.354214 4.94883,-2.170076 2.4455,-1.242427 4.79494,-2.665497 7.19241,-3.998245 3.56494,-2.491298 4.33828,-2.734829 7.23406,-5.862421 1.81247,-1.957557 3.67415,-4.580958 4.98557,-6.900865 1.50014,-2.653736 2.60389,-5.490255 3.79077,-8.287718 0.58985,-1.577258 1.21149,-3.142991 1.76956,-4.731769 1.34271,-3.822546 1.89451,-6.068001 3.30111,-9.894456 1.75137,-4.764352 3.78758,-9.260117 6.67213,-13.458092 0.84049,-1.051695 1.62083,-2.154425 2.52148,-3.155084 0.85394,-0.948759 1.77355,-1.840392 2.73276,-2.682576 1.00344,-0.881031 2.08798,-1.665407 3.14651,-2.479435 0.19178,-0.147482 0.38739,-0.294173 0.60297,-0.403983 3.76213,-1.91637 3.30252,-1.623355 7.1895,-3.099772 1.12694,-0.297185 2.2397,-0.654607 3.38084,-0.891555 2.2031,-0.457459 4.08174,-0.609198 6.32369,-0.577614 2.25755,0.0318 3.67774,0.167583 5.83311,0.738579 0.75115,0.198991 1.47078,0.502077 2.20617,0.753115 0.53331,0.309771 1.09384,0.57681 1.59992,0.929311 1.04115,0.725193 1.78823,1.531283 2.60152,2.497775 1.3353,1.586812 2.52151,3.304305 3.53999,5.109898 0.29357,0.571632 0.60343,1.135189 0.8807,1.714899 1.23957,2.591666 2.1689,5.34252 2.8146,8.138991 0.14913,0.756063 0.31201,1.508339 0.40595,2.274237 0.14433,1.176721 0.0684,2.360657 -0.0212,3.53805 -0.2542,2.511896 -0.74088,4.997932 -1.77411,7.318682 -0.4902,0.976408 -0.65514,1.357498 -1.21072,2.270681 -0.85454,1.404551 -1.92268,2.646426 -2.99609,3.885641 -1.0908,1.243166 -2.17931,2.448137 -3.49554,3.464116 -0.53378,0.412022 -1.16818,0.696431 -1.65563,1.162351 -0.28007,0.267703 1.37318,-0.716822 1.02088,-0.55563 -0.81934,0.374878 -1.61562,0.798232 -2.42342,1.197348 -0.94104,0.358849 -1.8694,0.752901 -2.82312,1.07655 -2.17467,0.737987 -4.35757,1.278118 -6.58304,1.837751 -1.09522,0.275413 -2.19377,0.537406 -3.29066,0.806109 -0.96095,0.250301 -1.92007,0.507714 -2.88284,0.750906 -0.86104,0.217492 -1.72562,0.420732 -2.58843,0.6311 -5.57888,1.139629 -11.21767,1.950831 -16.82555,2.932779 -5.70932,0.951328 -11.39029,1.983856 -16.99882,3.431251 -1.50601,0.388655 -3.01548,0.769581 -4.50014,1.233157 -1.2709,0.396833 -2.50702,0.897467 -3.76053,1.346203 -1.92109,1.086855 -3.89829,2.080014 -5.76327,3.260571 -1.3136,0.831535 -3.89939,2.871642 -3.24869,4.848416 0.36084,1.096221 1.69779,1.634265 2.53923,2.138571 0.7444,0.314746 1.48111,0.648343 2.23321,0.94424 6.11538,2.40597 12.50309,4.136509 19.00143,5.112189 1.33006,0.122957 2.65812,0.27005 3.99019,0.368877 1.83779,0.136345 5.73787,0.315309 7.59141,0.319513 2.04309,0.0046 5.03059,-0.08179 7.05553,-0.479673 0.99366,-0.195247 1.9414,-0.576916 2.91211,-0.865376 1.87205,-0.998815 3.79588,-1.906129 5.61616,-2.996446 1.16569,-0.698227 2.73863,-1.845101 2.99934,-3.370365 0.38254,-2.238087 -2.71512,-3.476948 -4.10398,-4.36816 -0.96278,-0.533003 -1.9132,-1.088972 -2.88834,-1.599004 -3.66495,-1.916888 -7.45654,-3.727484 -11.43162,-4.909862 -3.23978,-0.963666 -4.51718,-1.023869 -7.84691,-1.503648 -5.10325,-0.413044 -3.13581,-0.275752 -8.32021,-0.605465 -5.20285,-0.330885 -10.45859,-0.603231 -15.45344,-2.250059 -1.11406,-0.462933 -2.26751,-0.840586 -3.34218,-1.388795 -4.70465,-2.399943 -9.10391,-6.647916 -11.84406,-11.135593 -0.74682,-1.223087 -1.29717,-2.555785 -1.94575,-3.833677 -0.44304,-1.333186 -0.999926,-2.6338 -1.329126,-3.999558 -1.159611,-4.810903 -0.691809,-9.485866 1.302496,-13.988548 0.39303,-0.887364 0.90826,-1.715402 1.36239,-2.573102 0.52594,-0.759581 1.00221,-1.556078 1.57782,-2.278745 1.08078,-1.356905 3.07559,-3.29447 4.34266,-4.386675 0.94583,-0.815292 1.98366,-1.519655 2.92896,-2.335559 0.20452,-0.176525 0.28215,-0.483534 0.50836,-0.631245 1.10753,-0.723195 2.30197,-1.30362 3.45296,-1.95543 1.20237,-0.539969 2.38114,-1.135915 3.60712,-1.619906 1.21641,-0.480215 2.46035,-0.891289 3.7122,-1.269614 2.34009,-0.707206 4.91945,-1.328129 7.36083,-1.575631 2.74688,-0.278476 4.15004,-0.07755 6.89003,0.09476 1.12314,0.165865 2.25039,0.305965 3.36942,0.497594 5.2187,0.893683 10.39532,2.290014 15.17229,4.604626 1.46033,0.889044 2.4676,1.274854 3.47923,2.649172 1.6901,2.296056 1.06553,5.604139 0.7755,8.197093 -0.23049,0.97305 -0.40126,1.962218 -0.69149,2.919153 -0.66825,2.203373 -1.71672,4.551235 -2.73922,6.59571 -2.35127,4.701342 -5.15542,9.160542 -8.21496,13.430748 -2.92006,3.781848 -4.38437,5.940483 -7.74721,9.294373 -1.24009,1.236787 -2.60172,2.345888 -3.92986,3.487589 -0.51197,0.4401 -1.00764,0.912522 -1.5887,1.256281 -4.41494,2.611906 -4.96362,2.567163 -9.76274,4.336781 -1.75745,0.375853 -3.49093,0.889963 -5.27235,1.127558 -3.98502,0.531501 -7.40736,0.329338 -11.39874,-0.02146 -5.2724,-0.463378 -10.487716,-1.445713 -15.764047,-1.877055 -1.592779,-0.107109 -3.182967,-0.264581 -4.778333,-0.321326 -2.985111,-0.106182 -5.817841,-0.0073 -8.790045,0.260721 -1.524373,0.13748 -6.159958,0.655558 -7.738325,1.242173 -2.032785,0.755507 -3.922058,1.85189 -5.883087,2.777834 -0.636407,0.447718 -1.334931,0.818124 -1.90922,1.343152 -1.518211,1.387981 -2.953464,4.208688 -1.530964,6.159161 0.333108,0.456743 0.875665,0.715201 1.313501,1.072801 0.63051,0.212916 1.237051,0.518195 1.891532,0.638752 0.804355,0.148164 4.758595,0.217313 5.353868,0.221607 3.341539,0.0241 6.698358,-0.0097 10.019773,-0.413099 3.591896,-0.551289 7.18294,-1.130742 10.603063,-2.414871 2.951867,-1.108316 4.39638,-2.208577 7.492217,-3.996145 1.663253,-1.249002 2.762607,-1.927071 4.113847,-3.580855 1.26333,-1.546182 2.36943,-3.577312 2.82365,-5.53045 0.58671,-2.522844 0.24605,-4.324739 0.0496,-6.864154 -1.20131,-5.768922 -0.1742,-1.059664 -1.55313,-6.788849 -0.70159,-2.914964 -1.46284,-5.872786 -1.20914,-8.902863 0.0693,-0.827871 0.29005,-1.636022 0.43507,-2.454032 0.29628,-0.832382 0.52273,-1.693032 0.88885,-2.497151 0.74094,-1.627372 2.13521,-3.693557 3.13497,-5.137393 2.02865,-2.929726 4.26303,-5.69976 6.45611,-8.505767 1.36599,-2.107422 2.37905,-3.262066 2.99151,-5.720484 0.36442,-1.462752 0.31904,-3.4374 -0.19355,-4.879647 -0.43747,-1.230877 -1.73337,-2.714283 -2.49356,-3.692414 -0.63938,-0.654069 -1.23267,-1.356609 -1.91813,-1.962207 -2.19252,-1.937067 -4.97911,-3.684717 -7.76322,-4.612624 -0.68438,-0.228093 -1.41867,-0.657572 -2.11373,-0.464463 -1.58364,0.43998 -2.918828,1.512083 -4.378238,2.268125 -1.148228,1.155257 -2.273406,2.33574 -3.469648,3.442227 -2.307897,2.134732 -4.756145,4.112984 -7.30618,5.951252 -1.123082,0.818411 -2.243968,1.639846 -3.369247,2.455233 -3.981931,2.885345 -8.011035,5.713674 -11.681756,8.999873 -1.204132,1.077998 -2.348314,2.221728 -3.49142,3.364236 -1.141085,1.140486 -2.24,2.322401 -3.359997,3.483602 -1.05129,1.131038 -2.09019,2.273718 -3.153865,3.393114 -5.138012,5.407168 -10.583529,10.555229 -16.516117,15.086171 -1.007507,0.760955 -2.019734,1.5157 -3.022521,2.282862 -1.881065,1.439072 -2.712018,2.13532 -4.549645,3.511439 -1.309968,0.980977 -1.803974,1.280258 -3.075522,2.253186 -0.486336,0.372121 -0.960117,0.760371 -1.440177,1.140556 -1.134094,0.99845 -2.225601,2.021771 -3.291695,3.092728 -0.717362,0.720632 -1.319122,1.307324 -1.939393,2.115203 -0.272195,0.35452 -0.503989,0.738304 -0.755983,1.107456 -0.124206,0.351197 -0.357108,0.6814 -0.372618,1.053592 -0.03236,0.776658 0.634579,0.909688 1.201192,1.069948 0.424514,0.120071 0.863801,0.180063 1.296998,0.263536 1.068491,0.205883 2.142311,0.383455 3.210513,0.590889 0.533469,0.08666 1.065591,0.182065 1.600406,0.259992 2.711731,0.395134 5.458016,0.525743 8.16904,0.932855 0.579979,0.06748 1.158041,0.154197 1.739939,0.20243 1.028457,0.08525 1.790063,0.06526 2.817,0.03069 1.543344,-0.05195 3.09326,-0.126073 4.613156,-0.419793 1.439389,-0.764564 2.886898,-1.51403 4.318164,-2.293694 0.692817,-0.377401 1.773296,-1.090538 2.386801,-1.513715 1.917375,-1.322555 3.778819,-2.732961 5.362038,-4.455309 1.308986,-1.682355 2.293271,-2.684031 3.046002,-4.737515 0.336331,-0.917525 0.605182,-1.88455 0.639011,-2.861191 0.05495,-1.586605 -0.65469,-3.725423 -1.468715,-5.077793 -0.377986,-0.627965 -0.933749,-1.13003 -1.400625,-1.695043 -1.196059,-0.788106 -2.401538,-1.561864 -3.596983,-2.350902 -2.100887,-1.386665 -4.239835,-2.770724 -5.720829,-4.858202 -2.066917,-2.855616 -4.021011,-5.789859 -5.993728,-8.710909 -0.324993,-0.503925 -0.666194,-0.99776 -0.974979,-1.511779 -0.994421,-1.65536 -1.756392,-3.461446 -2.2338,-5.332031 -0.03825,-0.273101 -0.09774,-0.54406 -0.114745,-0.819301 -0.0834,-1.350002 0.413224,-2.400287 1.376103,-3.321288 0.268306,-0.205711 1.114521,-0.752965 0.804916,-0.617133 -0.739868,0.324599 -1.465845,0.704511 -2.11141,1.190326 -0.422772,0.318156 0.955911,-0.453943 1.434031,-0.680569 3.139194,-1.487945 2.305942,-1.035918 6.814844,-3.685027 0.75919,-0.446045 1.483035,-0.949687 2.224553,-1.424531 1.31875,-1.047369 3.090987,-2.219539 3.925896,-3.77914 1.133665,-2.117682 -0.0013,-4.346886 -1.548731,-5.849166 -0.549346,-0.533357 -1.241396,-0.896625 -1.862092,-1.344937 -0.75246,-0.205476 -1.485898,-0.501396 -2.257378,-0.616429 -0.856176,-0.127662 -1.729607,-0.137418 -2.594716,-0.10705 -2.81686,0.09888 -5.613648,0.789702 -8.201816,1.887542 -0.807958,0.342718 -1.574982,0.774882 -2.362475,1.162323 -1.796502,1.023083 -3.606884,2.022169 -5.389504,3.069249 -0.145642,0.08555 -4.269772,2.693219 -4.424526,2.80634 -0.306197,0.223814 1.347708,-0.696179 1.006025,-0.531552 -2.719581,1.310336 -0.790345,0.554179 -3.272182,1.434467 -0.435305,0.04001 -0.868778,0.120022 -1.305919,0.120013 -2.204408,-5.6e-5 -4.306914,-0.93393 -6.303821,-1.749508 -0.79648,-0.397092 -1.343388,-0.635582 -2.071603,-1.115347 -0.799299,-0.526597 -1.463645,-1.226858 -2.114106,-1.920662 -0.459126,-0.59122 -0.88691,-1.198957 -1.200525,-1.882714 -0.331899,-0.710503 -0.647506,-1.435251 -0.770029,-2.215985 -0.02817,-0.423241 -0.05887,-0.598822 -0.0094,-1.025463 0.09136,-0.788279 0.504793,-1.481034 0.865105,-2.171141 0.995068,-1.7227781 2.107313,-3.3341345 3.345033,-4.893132 0,0 -3.617108,1.565057 -3.617108,1.565057 z" />
    <path
       style="fill:#917c6f;stroke-width:0.264583"
       id="path62"
       d="m 12.727724,86.512203 c 0.205057,-0.122063 0.822233,-0.484814 0.61517,-0.366186 -0.768928,0.440521 -1.616241,0.769189 -2.30083,1.331902 -0.419491,0.344813 0.975908,-0.482301 1.48777,-0.663586 0.841186,-0.297923 1.70485,-0.528761 2.563644,-0.771305 2.034911,-0.574707 4.085374,-1.092859 6.127481,-1.641454 1.477204,-0.46682 4.15005,-1.238766 5.553832,-1.964213 1.862002,-0.962253 3.710217,-1.968305 5.445442,-3.143883 0.761492,-0.515895 1.411446,-1.194146 2.000485,-1.900581 1.331124,-1.596419 1.554983,-2.538974 2.3089,-4.396349 -0.0173,-0.670356 0.252386,-1.413502 -0.0519,-2.011071 C 35.68964,69.437831 33.292359,69.105398 31.937754,68.877409 30.905963,68.70375 29.857697,68.641457 28.81362,68.573265 26.764382,68.439429 25.346479,68.486795 23.323749,68.505335 20.748814,68.526975 18.005548,68.72433 15.500022,67.97012 14.330614,67.618105 14.132469,67.399334 13.143194,66.76576 12.871862,66.474776 12.567397,66.211486 12.329205,65.892811 11.569003,64.875737 11.219978,63.600493 10.89333,62.397996 10.494335,60.929167 10.379468,60.331011 10.038842,58.810244 9.1530801,54.999334 8.8351187,51.100058 8.5326433,47.210051 8.4773944,45.27188 8.3696124,44.081993 8.6343767,42.122087 8.8860901,40.258788 9.582588,37.463896 10.206096,35.72188 c 0.428313,-1.196663 0.865173,-2.401515 1.478832,-3.514564 0.7013,-1.272011 1.631219,-2.403843 2.446828,-3.605763 3.311475,-3.372265 3.413566,-4.003123 7.883289,-6.229023 0.882095,-0.439279 1.890118,-0.5583 2.836072,-0.834393 4.77643,-1.394085 6.452962,-2.170769 11.461606,-2.436522 1.970098,-0.104531 3.944128,0.112882 5.916189,0.169322 4.963084,0.801035 5.097944,0.639496 9.65807,2.022221 1.396301,0.423387 4.630883,1.764438 6.240526,1.942575 2.615168,0.289418 3.469275,-0.372078 5.93876,-1.269157 1.128599,-0.605177 2.278727,-1.17181 3.385794,-1.815532 4.998868,-2.906674 5.245658,-3.071219 9.111959,-5.803079 0.322069,-0.227568 4.247377,-3.084947 4.872955,-3.403525 0.51924,-0.264424 -0.920951,0.714114 -1.381426,1.071171 0.945443,-0.02424 1.267981,-0.210058 2.038379,0.374752 1.079166,0.819196 1.172567,2.58555 1.327928,3.809115 0.304032,0.268635 0.52697,0.678323 0.912098,0.805906 0.769167,0.254805 1.602515,0.294743 2.412788,0.295545 2.736519,0.0027 5.415724,-0.604793 8.071104,-1.172689 2.29702,-0.491255 6.532423,-1.536149 8.884613,-2.107879 2.82827,-0.182308 3.37683,-0.597702 5.87912,0.504122 0.67369,0.296641 1.23314,0.804247 1.8532,1.200947 0.6679,0.42731 1.30358,0.912223 2.01064,1.271044 1.89303,0.960682 3.61718,1.411213 5.63351,2.047712 2.38186,0.709548 4.82086,1.219382 7.27859,1.581772 0.55969,0.08253 1.11897,0.211911 1.68469,0.206046 1.76397,-0.01829 2.72301,-0.509162 4.44296,-1.072856 0.86626,-0.346641 1.7354,-0.686175 2.59878,-1.039922 1.32714,-0.543762 3.40886,-1.479756 4.79018,-1.910972 1.4637,-0.456933 5.48557,-1.35291 6.76013,-1.650101 1.56591,-0.36513 3.13121,-0.732957 4.69681,-1.099435 7.26932,-1.717387 3.63315,-0.85063 10.9085,-2.60035 0,0 2.36254,-1.8030722 2.36254,-1.8030722 v 0 c -7.21997,1.7317782 -3.62633,0.8965002 -10.78048,2.5076882 -2.75042,0.602566 -5.50747,1.174824 -8.25603,1.785798 -0.97241,0.216155 -1.95478,0.397885 -2.90967,0.68157 -2.54791,0.756947 -4.87948,2.102169 -7.38682,2.96669 -1.49392,0.501254 -2.65354,1.033915 -4.22364,1.099903 -0.58042,0.02439 -1.15934,-0.08192 -1.73652,-0.147792 -2.49453,-0.284703 -4.96779,-0.759017 -7.3844,-1.442198 -2.14275,-0.67807 -3.49349,-0.997347 -5.48095,-2.038952 -0.26499,-0.138881 -3.67587,-2.399901 -3.97145,-2.525319 -2.67964,-1.137016 -3.22712,-0.696343 -6.22516,-0.467095 -2.94276,0.741504 -5.92639,1.524507 -8.898007,2.1404 -2.712029,0.562091 -4.940318,1.026098 -7.679385,1.013785 -0.70934,-0.0032 -1.431179,-0.05123 -2.114127,-0.24295 -0.304601,-0.08551 -0.508579,-0.37646 -0.76287,-0.56469 -0.164357,-1.06266 -0.285856,-2.34822 -0.828114,-3.298294 -0.346893,-0.607785 -0.976551,-1.189185 -1.679771,-1.3540728 -0.439111,-0.1029604 -0.901912,-0.015123 -1.352868,-0.022685 -1.591257,0.8283898 -3.21778,1.5922978 -4.773771,2.4851708 -0.736722,0.422752 -1.399908,0.962506 -2.092166,1.454702 -0.870776,0.61912 -1.72475,1.261683 -2.596735,1.879099 -0.995987,0.705216 -2.021083,1.369277 -3.00692,2.088613 -0.163616,0.119387 -0.2618,0.319756 -0.435798,0.423436 -1.071192,0.638303 -2.188877,1.19514 -3.283315,1.79271 -2.326415,0.903077 -3.261284,1.589633 -5.771984,1.401875 -1.688605,-0.126278 -5.009509,-1.368269 -6.481143,-1.772759 -4.737576,-1.30216 -4.782412,-1.147451 -9.898478,-1.933871 -1.978543,-0.0716 -3.957915,-0.306426 -5.93563,-0.214786 -3.526917,0.163423 -8.214172,1.077979 -11.506745,2.371993 -2.719819,1.068915 -5.351735,2.362306 -7.931293,3.73558 -1.624486,0.864824 -3.220659,1.81502 -4.656754,2.965892 -1.252031,1.003365 -2.235484,2.302149 -3.353226,3.453224 -0.838543,1.235364 -1.7912762,2.400491 -2.5156281,3.706088 -0.6291675,1.134036 -1.082885,2.360041 -1.526079,3.578839 -0.3983532,1.095483 -0.7065053,2.223074 -0.9944211,3.35262 -0.2671908,1.048237 -0.5115573,2.105284 -0.6695506,3.175439 -0.2913079,1.973149 -0.193657,3.216783 -0.1579798,5.171106 0.088796,1.513438 0.1446085,2.713612 0.285597,4.210368 0.2364412,2.510097 0.6809486,4.993296 1.2012089,7.458604 0.2079196,1.013465 0.5279062,2.628347 0.7802464,3.6551 0.3145849,1.280017 0.6915264,2.590839 1.4938124,3.665564 0.2569681,0.344228 0.5820672,0.631901 0.8731009,0.947853 1.00889,0.651952 1.286758,0.927212 2.479781,1.286108 0.523167,0.157385 1.065262,0.248113 1.605423,0.329959 2.123994,0.321834 4.272539,0.263174 6.410797,0.168294 2.858445,-0.08154 5.761601,-0.199006 8.598689,0.271029 0.978771,0.162157 3.508132,0.551931 4.160107,1.794938 0.285518,0.544349 0.03526,1.22886 0.05289,1.843289 -0.76024,1.830173 -0.945616,2.672104 -2.302478,4.226684 -0.594432,0.681051 -1.388586,1.16432 -2.008328,1.822424 -0.133347,0.141602 0.708612,-0.320353 0.527357,-0.249786 -4.544544,1.769343 -0.804881,0.480074 -5.565202,2.024285 -4.257518,1.149239 -1.798696,0.503886 -6.050353,1.578676 -0.815759,0.206216 -1.642313,0.37411 -2.446605,0.621303 -2.329678,0.716002 -4.278773,2.259711 -6.3973955,3.417054 0,0 3.6848465,-1.421596 3.6848465,-1.421596 z" />
  </g>
</svg>
