<?xml version="1.0" encoding="UTF-8" standalone="no"?>
<!-- Created with Inkscape (http://www.inkscape.org/) -->

<svg
   width="200mm"
   height="100mm"
   viewBox="0 0 200 100"
   version="1.1"
   id="svg5"
   inkscape:version="1.1 (c68e22c387, 2021-05-23)"
   sodipodi:docname="Spiraleinorange.svg"
   xmlns:inkscape="http://www.inkscape.org/namespaces/inkscape"
   xmlns:sodipodi="http://sodipodi.sourceforge.net/DTD/sodipodi-0.dtd"
   xmlns:xlink="http://www.w3.org/1999/xlink"
   xmlns="http://www.w3.org/2000/svg"
   xmlns:svg="http://www.w3.org/2000/svg">
  <sodipodi:namedview
     id="namedview7"
     pagecolor="#ffffff"
     bordercolor="#666666"
     borderopacity="1.0"
     inkscape:pageshadow="2"
     inkscape:pageopacity="0"
     inkscape:pagecheckerboard="false"
     inkscape:document-units="mm"
     showgrid="false"
     width="200mm"
     showborder="true"
     inkscape:showpageshadow="false"
     borderlayer="false"
     inkscape:snap-bbox="true"
     inkscape:bbox-nodes="false"
     inkscape:snap-to-guides="false"
     inkscape:zoom="1.3416246"
     inkscape:cx="420.01317"
     inkscape:cy="71.927721"
     inkscape:window-width="1680"
     inkscape:window-height="987"
     inkscape:window-x="-8"
     inkscape:window-y="27"
     inkscape:window-maximized="1"
     inkscape:current-layer="layer1"
     inkscape:snap-grids="false"
     inkscape:lockguides="false" />
  <defs
     id="defs2">
    <color-profile
       name="Agfa-:-Swop-Standard"
       xlink:href="../../../../../WINDOWS/system32/spool/drivers/color/RSWOP.icm"
       id="color-profile1117" />
    <color-profile
       name="Laptop-Internal-MaxBright-Display"
       xlink:href="../../../../../WINDOWS/system32/spool/drivers/color/TPMB60.icm"
       id="color-profile1119" />
  </defs>
  <g
     inkscape:label="Ebene 1"
     inkscape:groupmode="layer"
     id="layer1">
    <g
       id="g88"
       style="fill:#d45500">
      <g
         id="g84"
         style="fill:#d45500">
        <rect
           style="fill:#d45500;fill-rule:evenodd;stroke-width:0.264583"
           id="rect81"
           width="200"
           height="100"
           x="-2.8421709e-14"
           y="0" />
        <path
           sodipodi:type="spiral"
           style="fill:#d45500;fill-rule:evenodd;stroke:#000000"
           id="path492-82"
           sodipodi:cx="212.42902"
           sodipodi:cy="68.573578"
           sodipodi:expansion="1"
           sodipodi:revolution="3.8707526"
           sodipodi:radius="32.54213"
           sodipodi:argument="-18.253357"
           sodipodi:t0="0"
           transform="matrix(0.05077049,0,0,0.04737985,84.80035,37.67225)"
           d="m 212.42902,68.573578 c 1.0464,0.710057 -0.44089,1.760843 -1.18017,1.739185 -2.00339,-0.05869 -2.78365,-2.460977 -2.2982,-4.099507 0.86834,-2.930947 4.38955,-3.929101 7.01885,-2.857235 3.8586,1.573008 5.10212,6.34199 3.41626,9.938202 -2.24699,4.793185 -8.30259,6.286504 -12.85755,3.975282 -5.73195,-2.908436 -7.47669,-10.267012 -4.53431,-15.776894 3.56362,-6.673205 12.23357,-8.670221 18.69624,-5.093331 7.61604,4.21524 9.86585,14.201456 5.65236,21.615587 -4.86465,8.559908 -16.17023,11.062878 -24.53493,6.21138 -9.50451,-5.51258 -12.26089,-18.139629 -6.77041,-27.454281 6.15949,-10.449632 20.10948,-13.459605 30.37363,-7.329428 11.39514,6.805657 14.65886,22.079681 7.88845,33.292974 -7.45127,12.340958 -24.05014,15.858519 -36.21232,8.447477 -13.287,-8.096456 -17.0585,-26.020816 -9.0065,-39.131668 8.74131,-14.233232 27.99166,-18.258743 42.05101,-9.565525 6.93753,4.289631 12.01329,11.235972 14.08431,19.116819" />
        <path
           sodipodi:type="spiral"
           style="fill:#d45500;fill-rule:evenodd;stroke:#000000"
           id="path492-5"
           sodipodi:cx="212.42902"
           sodipodi:cy="68.573578"
           sodipodi:expansion="1"
           sodipodi:revolution="3"
           sodipodi:radius="25.221548"
           sodipodi:argument="-18.253357"
           sodipodi:t0="0"
           transform="matrix(0.26458333,0,0,0.26458333,54.665891,-1.6163002)"
           d="m 212.42902,68.573578 c 1.0464,0.710057 -0.44089,1.760843 -1.18016,1.739185 -2.0034,-0.05869 -2.78366,-2.460977 -2.29821,-4.099507 0.86834,-2.930946 4.38955,-3.9291 7.01885,-2.857234 3.8586,1.573008 5.10212,6.341988 3.41626,9.9382 -2.24699,4.793184 -8.30259,6.286503 -12.85755,3.975282 -5.73195,-2.908436 -7.47669,-10.267011 -4.5343,-15.776892 3.56361,-6.673204 12.23356,-8.670219 18.69623,-5.09333 7.61604,4.215239 9.86585,14.201454 5.65236,21.615584 -4.86465,8.559906 -16.17023,11.062875 -24.53493,6.211379 -9.50451,-5.512579 -12.26089,-18.139627 -6.77041,-27.454277 6.15949,-10.44963 20.10948,-13.459602 30.37363,-7.329427 11.39514,6.805656 14.65885,22.079677 7.88845,33.292969" />
        <path
           sodipodi:type="spiral"
           style="fill:#d45500;fill-rule:evenodd;stroke:#000000"
           id="path492-79"
           sodipodi:cx="212.42902"
           sodipodi:cy="68.573578"
           sodipodi:expansion="1"
           sodipodi:revolution="3"
           sodipodi:radius="25.221548"
           sodipodi:argument="-18.253357"
           sodipodi:t0="0"
           transform="matrix(0.26458333,0,0,0.26458333,42.241589,45.911587)"
           d="m 212.42902,68.573578 c 1.0464,0.710057 -0.44089,1.760843 -1.18016,1.739185 -2.0034,-0.05869 -2.78366,-2.460977 -2.29821,-4.099507 0.86834,-2.930946 4.38955,-3.9291 7.01885,-2.857234 3.8586,1.573008 5.10212,6.341988 3.41626,9.9382 -2.24699,4.793184 -8.30259,6.286503 -12.85755,3.975282 -5.73195,-2.908436 -7.47669,-10.267011 -4.5343,-15.776892 3.56361,-6.673204 12.23356,-8.670219 18.69623,-5.09333 7.61604,4.215239 9.86585,14.201454 5.65236,21.615584 -4.86465,8.559906 -16.17023,11.062875 -24.53493,6.211379 -9.50451,-5.512579 -12.26089,-18.139627 -6.77041,-27.454277 6.15949,-10.44963 20.10948,-13.459602 30.37363,-7.329427 11.39514,6.805656 14.65885,22.079677 7.88845,33.292969" />
        <path
           sodipodi:type="spiral"
           style="fill:#d45500;fill-rule:evenodd;stroke:#000000"
           id="path492-43"
           sodipodi:cx="212.42902"
           sodipodi:cy="68.573578"
           sodipodi:expansion="1"
           sodipodi:revolution="3"
           sodipodi:radius="25.221548"
           sodipodi:argument="-18.253357"
           sodipodi:t0="0"
           transform="matrix(0.26458333,0,0,0.26458333,90.36111,70.36577)"
           d="m 212.42902,68.573578 c 1.0464,0.710057 -0.44089,1.760843 -1.18016,1.739185 -2.0034,-0.05869 -2.78366,-2.460977 -2.29821,-4.099507 0.86834,-2.930946 4.38955,-3.9291 7.01885,-2.857234 3.8586,1.573008 5.10212,6.341988 3.41626,9.9382 -2.24699,4.793184 -8.30259,6.286503 -12.85755,3.975282 -5.73195,-2.908436 -7.47669,-10.267011 -4.5343,-15.776892 3.56361,-6.673204 12.23356,-8.670219 18.69623,-5.09333 7.61604,4.215239 9.86585,14.201454 5.65236,21.615584 -4.86465,8.559906 -16.17023,11.062875 -24.53493,6.211379 -9.50451,-5.512579 -12.26089,-18.139627 -6.77041,-27.454277 6.15949,-10.44963 20.10948,-13.459602 30.37363,-7.329427 11.39514,6.805656 14.65885,22.079677 7.88845,33.292969" />
        <path
           sodipodi:type="spiral"
           style="fill:#d45500;fill-rule:evenodd;stroke:#000000"
           id="path492-34"
           sodipodi:cx="212.42902"
           sodipodi:cy="68.573578"
           sodipodi:expansion="1"
           sodipodi:revolution="3"
           sodipodi:radius="25.221548"
           sodipodi:argument="-18.253357"
           sodipodi:t0="0"
           transform="matrix(0.26458333,0,0,0.26458333,132.16987,69.576926)"
           d="m 212.42902,68.573578 c 1.0464,0.710057 -0.44089,1.760843 -1.18016,1.739185 -2.0034,-0.05869 -2.78366,-2.460977 -2.29821,-4.099507 0.86834,-2.930946 4.38955,-3.9291 7.01885,-2.857234 3.8586,1.573008 5.10212,6.341988 3.41626,9.9382 -2.24699,4.793184 -8.30259,6.286503 -12.85755,3.975282 -5.73195,-2.908436 -7.47669,-10.267011 -4.5343,-15.776892 3.56361,-6.673204 12.23356,-8.670219 18.69623,-5.09333 7.61604,4.215239 9.86585,14.201454 5.65236,21.615584 -4.86465,8.559906 -16.17023,11.062875 -24.53493,6.211379 -9.50451,-5.512579 -12.26089,-18.139627 -6.77041,-27.454277 6.15949,-10.44963 20.10948,-13.459602 30.37363,-7.329427 11.39514,6.805656 14.65885,22.079677 7.88845,33.292969" />
        <path
           sodipodi:type="spiral"
           style="fill:#d45500;fill-rule:evenodd;stroke:#000000"
           id="path492-4"
           sodipodi:cx="212.42902"
           sodipodi:cy="68.573578"
           sodipodi:expansion="1"
           sodipodi:revolution="3"
           sodipodi:radius="25.221548"
           sodipodi:argument="-18.253357"
           sodipodi:t0="0"
           transform="matrix(0.26458333,0,0,0.26458333,118.16788,-4.9688898)"
           d="m 212.42902,68.573578 c 1.0464,0.710057 -0.44089,1.760843 -1.18016,1.739185 -2.0034,-0.05869 -2.78366,-2.460977 -2.29821,-4.099507 0.86834,-2.930946 4.38955,-3.9291 7.01885,-2.857234 3.8586,1.573008 5.10212,6.341988 3.41626,9.9382 -2.24699,4.793184 -8.30259,6.286503 -12.85755,3.975282 -5.73195,-2.908436 -7.47669,-10.267011 -4.5343,-15.776892 3.56361,-6.673204 12.23356,-8.670219 18.69623,-5.09333 7.61604,4.215239 9.86585,14.201454 5.65236,21.615584 -4.86465,8.559906 -16.17023,11.062875 -24.53493,6.211379 -9.50451,-5.512579 -12.26089,-18.139627 -6.77041,-27.454277 6.15949,-10.44963 20.10948,-13.459602 30.37363,-7.329427 11.39514,6.805656 14.65885,22.079677 7.88845,33.292969" />
        <path
           sodipodi:type="spiral"
           style="fill:#d45500;fill-rule:evenodd;stroke:#000000"
           id="path492-7"
           sodipodi:cx="212.42902"
           sodipodi:cy="68.573578"
           sodipodi:expansion="1"
           sodipodi:revolution="3"
           sodipodi:radius="25.221548"
           sodipodi:argument="-18.253357"
           sodipodi:t0="0"
           transform="matrix(0.26458333,0,0,0.26458333,-28.360004,2.9195563)"
           d="m 212.42902,68.573578 c 1.0464,0.710057 -0.44089,1.760843 -1.18016,1.739185 -2.0034,-0.05869 -2.78366,-2.460977 -2.29821,-4.099507 0.86834,-2.930946 4.38955,-3.9291 7.01885,-2.857234 3.8586,1.573008 5.10212,6.341988 3.41626,9.9382 -2.24699,4.793184 -8.30259,6.286503 -12.85755,3.975282 -5.73195,-2.908436 -7.47669,-10.267011 -4.5343,-15.776892 3.56361,-6.673204 12.23356,-8.670219 18.69623,-5.09333 7.61604,4.215239 9.86585,14.201454 5.65236,21.615584 -4.86465,8.559906 -16.17023,11.062875 -24.53493,6.211379 -9.50451,-5.512579 -12.26089,-18.139627 -6.77041,-27.454277 6.15949,-10.44963 20.10948,-13.459602 30.37363,-7.329427 11.39514,6.805656 14.65885,22.079677 7.88845,33.292969" />
        <path
           sodipodi:type="spiral"
           style="fill:#d45500;fill-rule:evenodd;stroke:#000000"
           id="path492-80"
           sodipodi:cx="212.42902"
           sodipodi:cy="68.573578"
           sodipodi:expansion="1"
           sodipodi:revolution="3"
           sodipodi:radius="25.221548"
           sodipodi:argument="-18.253357"
           sodipodi:t0="0"
           transform="matrix(0.26458333,0,0,0.26458333,-9.4277332,21.260193)"
           d="m 212.42902,68.573578 c 1.0464,0.710057 -0.44089,1.760843 -1.18016,1.739185 -2.0034,-0.05869 -2.78366,-2.460977 -2.29821,-4.099507 0.86834,-2.930946 4.38955,-3.9291 7.01885,-2.857234 3.8586,1.573008 5.10212,6.341988 3.41626,9.9382 -2.24699,4.793184 -8.30259,6.286503 -12.85755,3.975282 -5.73195,-2.908436 -7.47669,-10.267011 -4.5343,-15.776892 3.56361,-6.673204 12.23356,-8.670219 18.69623,-5.09333 7.61604,4.215239 9.86585,14.201454 5.65236,21.615584 -4.86465,8.559906 -16.17023,11.062875 -24.53493,6.211379 -9.50451,-5.512579 -12.26089,-18.139627 -6.77041,-27.454277 6.15949,-10.44963 20.10948,-13.459602 30.37363,-7.329427 11.39514,6.805656 14.65885,22.079677 7.88845,33.292969" />
        <path
           sodipodi:type="spiral"
           style="fill:#d45500;fill-rule:evenodd;stroke:#000000"
           id="path492-25"
           sodipodi:cx="212.42902"
           sodipodi:cy="68.573578"
           sodipodi:expansion="1"
           sodipodi:revolution="3"
           sodipodi:radius="25.221548"
           sodipodi:argument="-18.253357"
           sodipodi:t0="0"
           transform="matrix(0.26458333,0,0,0.26458333,-25.796259,60.11079)"
           d="m 212.42902,68.573578 c 1.0464,0.710057 -0.44089,1.760843 -1.18016,1.739185 -2.0034,-0.05869 -2.78366,-2.460977 -2.29821,-4.099507 0.86834,-2.930946 4.38955,-3.9291 7.01885,-2.857234 3.8586,1.573008 5.10212,6.341988 3.41626,9.9382 -2.24699,4.793184 -8.30259,6.286503 -12.85755,3.975282 -5.73195,-2.908436 -7.47669,-10.267011 -4.5343,-15.776892 3.56361,-6.673204 12.23356,-8.670219 18.69623,-5.09333 7.61604,4.215239 9.86585,14.201454 5.65236,21.615584 -4.86465,8.559906 -16.17023,11.062875 -24.53493,6.211379 -9.50451,-5.512579 -12.26089,-18.139627 -6.77041,-27.454277 6.15949,-10.44963 20.10948,-13.459602 30.37363,-7.329427 11.39514,6.805656 14.65885,22.079677 7.88845,33.292969" />
        <path
           sodipodi:type="spiral"
           style="fill:#d45500;fill-rule:evenodd;stroke:#000000"
           id="path492-3"
           sodipodi:cx="212.42902"
           sodipodi:cy="68.573578"
           sodipodi:expansion="1"
           sodipodi:revolution="3"
           sodipodi:radius="25.221548"
           sodipodi:argument="-18.253357"
           sodipodi:t0="0"
           transform="matrix(0.26458333,0,0,0.26458333,3.3909917,62.674535)"
           d="m 212.42902,68.573578 c 1.0464,0.710057 -0.44089,1.760843 -1.18016,1.739185 -2.0034,-0.05869 -2.78366,-2.460977 -2.29821,-4.099507 0.86834,-2.930946 4.38955,-3.9291 7.01885,-2.857234 3.8586,1.573008 5.10212,6.341988 3.41626,9.9382 -2.24699,4.793184 -8.30259,6.286503 -12.85755,3.975282 -5.73195,-2.908436 -7.47669,-10.267011 -4.5343,-15.776892 3.56361,-6.673204 12.23356,-8.670219 18.69623,-5.09333 7.61604,4.215239 9.86585,14.201454 5.65236,21.615584 -4.86465,8.559906 -16.17023,11.062875 -24.53493,6.211379 -9.50451,-5.512579 -12.26089,-18.139627 -6.77041,-27.454277 6.15949,-10.44963 20.10948,-13.459602 30.37363,-7.329427 11.39514,6.805656 14.65885,22.079677 7.88845,33.292969" />
        <path
           sodipodi:type="spiral"
           style="fill:#d45500;fill-rule:evenodd;stroke:#000000"
           id="path492-20"
           sodipodi:cx="212.42902"
           sodipodi:cy="68.573578"
           sodipodi:expansion="1"
           sodipodi:revolution="3"
           sodipodi:radius="25.221548"
           sodipodi:argument="-18.253357"
           sodipodi:t0="0"
           transform="matrix(0.26458333,0,0,0.26458333,38.888999,64.449436)"
           d="m 212.42902,68.573578 c 1.0464,0.710057 -0.44089,1.760843 -1.18016,1.739185 -2.0034,-0.05869 -2.78366,-2.460977 -2.29821,-4.099507 0.86834,-2.930946 4.38955,-3.9291 7.01885,-2.857234 3.8586,1.573008 5.10212,6.341988 3.41626,9.9382 -2.24699,4.793184 -8.30259,6.286503 -12.85755,3.975282 -5.73195,-2.908436 -7.47669,-10.267011 -4.5343,-15.776892 3.56361,-6.673204 12.23356,-8.670219 18.69623,-5.09333 7.61604,4.215239 9.86585,14.201454 5.65236,21.615584 -4.86465,8.559906 -16.17023,11.062875 -24.53493,6.211379 -9.50451,-5.512579 -12.26089,-18.139627 -6.77041,-27.454277 6.15949,-10.44963 20.10948,-13.459602 30.37363,-7.329427 11.39514,6.805656 14.65885,22.079677 7.88845,33.292969" />
        <path
           sodipodi:type="spiral"
           style="fill:#d45500;fill-rule:evenodd;stroke:#000000"
           id="path492-2"
           sodipodi:cx="212.42902"
           sodipodi:cy="68.573578"
           sodipodi:expansion="1"
           sodipodi:revolution="3"
           sodipodi:radius="25.221548"
           sodipodi:argument="-18.253357"
           sodipodi:t0="0"
           transform="matrix(0.26458333,0,0,0.26458333,100.61609,49.461388)"
           d="m 212.42902,68.573578 c 1.0464,0.710057 -0.44089,1.760843 -1.18016,1.739185 -2.0034,-0.05869 -2.78366,-2.460977 -2.29821,-4.099507 0.86834,-2.930946 4.38955,-3.9291 7.01885,-2.857234 3.8586,1.573008 5.10212,6.341988 3.41626,9.9382 -2.24699,4.793184 -8.30259,6.286503 -12.85755,3.975282 -5.73195,-2.908436 -7.47669,-10.267011 -4.5343,-15.776892 3.56361,-6.673204 12.23356,-8.670219 18.69623,-5.09333 7.61604,4.215239 9.86585,14.201454 5.65236,21.615584 -4.86465,8.559906 -16.17023,11.062875 -24.53493,6.211379 -9.50451,-5.512579 -12.26089,-18.139627 -6.77041,-27.454277 6.15949,-10.44963 20.10948,-13.459602 30.37363,-7.329427 11.39514,6.805656 14.65885,22.079677 7.88845,33.292969" />
        <path
           sodipodi:type="spiral"
           style="fill:#d45500;fill-rule:evenodd;stroke:#000000"
           id="path492-8"
           sodipodi:cx="212.42902"
           sodipodi:cy="68.573578"
           sodipodi:expansion="1"
           sodipodi:revolution="3"
           sodipodi:radius="25.221548"
           sodipodi:argument="-18.253357"
           sodipodi:t0="0"
           transform="matrix(0.26458333,0,0,0.26458333,85.036409,7.8498351)"
           d="m 212.42902,68.573578 c 1.0464,0.710057 -0.44089,1.760843 -1.18016,1.739185 -2.0034,-0.05869 -2.78366,-2.460977 -2.29821,-4.099507 0.86834,-2.930946 4.38955,-3.9291 7.01885,-2.857234 3.8586,1.573008 5.10212,6.341988 3.41626,9.9382 -2.24699,4.793184 -8.30259,6.286503 -12.85755,3.975282 -5.73195,-2.908436 -7.47669,-10.267011 -4.5343,-15.776892 3.56361,-6.673204 12.23356,-8.670219 18.69623,-5.09333 7.61604,4.215239 9.86585,14.201454 5.65236,21.615584 -4.86465,8.559906 -16.17023,11.062875 -24.53493,6.211379 -9.50451,-5.512579 -12.26089,-18.139627 -6.77041,-27.454277 6.15949,-10.44963 20.10948,-13.459602 30.37363,-7.329427 11.39514,6.805656 14.65885,22.079677 7.88845,33.292969" />
        <path
           sodipodi:type="spiral"
           style="fill:#d45500;fill-rule:evenodd;stroke:#000000"
           id="path492-6"
           sodipodi:cx="212.42902"
           sodipodi:cy="68.573578"
           sodipodi:expansion="1"
           sodipodi:revolution="3"
           sodipodi:radius="25.221548"
           sodipodi:argument="-18.253357"
           sodipodi:t0="0"
           transform="matrix(0.26458333,0,0,0.26458333,27.253541,3.5111897)"
           d="m 212.42902,68.573578 c 1.0464,0.710057 -0.44089,1.760843 -1.18016,1.739185 -2.0034,-0.05869 -2.78366,-2.460977 -2.29821,-4.099507 0.86834,-2.930946 4.38955,-3.9291 7.01885,-2.857234 3.8586,1.573008 5.10212,6.341988 3.41626,9.9382 -2.24699,4.793184 -8.30259,6.286503 -12.85755,3.975282 -5.73195,-2.908436 -7.47669,-10.267011 -4.5343,-15.776892 3.56361,-6.673204 12.23356,-8.670219 18.69623,-5.09333 7.61604,4.215239 9.86585,14.201454 5.65236,21.615584 -4.86465,8.559906 -16.17023,11.062875 -24.53493,6.211379 -9.50451,-5.512579 -12.26089,-18.139627 -6.77041,-27.454277 6.15949,-10.44963 20.10948,-13.459602 30.37363,-7.329427 11.39514,6.805656 14.65885,22.079677 7.88845,33.292969" />
      </g>
    </g>
    <path
       sodipodi:type="spiral"
       style="fill:none;fill-rule:evenodd;stroke:#000000"
       id="path492-82-513"
       sodipodi:cx="212.42902"
       sodipodi:cy="68.573578"
       sodipodi:expansion="1"
       sodipodi:revolution="3.8707526"
       sodipodi:radius="32.54213"
       sodipodi:argument="-18.253357"
       sodipodi:t0="0"
       transform="matrix(0.05077049,0,0,0.04737985,67.031741,77.706704)"
       d="m 212.42902,68.573578 c 1.0464,0.710057 -0.44089,1.760843 -1.18017,1.739185 -2.00339,-0.05869 -2.78365,-2.460977 -2.2982,-4.099507 0.86834,-2.930947 4.38955,-3.929101 7.01885,-2.857235 3.8586,1.573008 5.10212,6.34199 3.41626,9.938202 -2.24699,4.793185 -8.30259,6.286504 -12.85755,3.975282 -5.73195,-2.908436 -7.47669,-10.267012 -4.53431,-15.776894 3.56362,-6.673205 12.23357,-8.670221 18.69624,-5.093331 7.61604,4.21524 9.86585,14.201456 5.65236,21.615587 -4.86465,8.559908 -16.17023,11.062878 -24.53493,6.21138 -9.50451,-5.51258 -12.26089,-18.139629 -6.77041,-27.454281 6.15949,-10.449632 20.10948,-13.459605 30.37363,-7.329428 11.39514,6.805657 14.65886,22.079681 7.88845,33.292974 -7.45127,12.340958 -24.05014,15.858519 -36.21232,8.447477 -13.287,-8.096456 -17.0585,-26.020816 -9.0065,-39.131668 8.74131,-14.233232 27.99166,-18.258743 42.05101,-9.565525 6.93753,4.289631 12.01329,11.235972 14.08431,19.116819" />
    <path
       sodipodi:type="spiral"
       style="fill:none;fill-rule:evenodd;stroke:#000000"
       id="path492-82-40"
       sodipodi:cx="212.42902"
       sodipodi:cy="68.573578"
       sodipodi:expansion="1"
       sodipodi:revolution="3.8707526"
       sodipodi:radius="32.54213"
       sodipodi:argument="-18.253357"
       sodipodi:t0="0"
       transform="matrix(0.05077049,0,0,0.04737985,57.368394,65.479612)"
       d="m 212.42902,68.573578 c 1.0464,0.710057 -0.44089,1.760843 -1.18017,1.739185 -2.00339,-0.05869 -2.78365,-2.460977 -2.2982,-4.099507 0.86834,-2.930947 4.38955,-3.929101 7.01885,-2.857235 3.8586,1.573008 5.10212,6.34199 3.41626,9.938202 -2.24699,4.793185 -8.30259,6.286504 -12.85755,3.975282 -5.73195,-2.908436 -7.47669,-10.267012 -4.53431,-15.776894 3.56362,-6.673205 12.23357,-8.670221 18.69624,-5.093331 7.61604,4.21524 9.86585,14.201456 5.65236,21.615587 -4.86465,8.559908 -16.17023,11.062878 -24.53493,6.21138 -9.50451,-5.51258 -12.26089,-18.139629 -6.77041,-27.454281 6.15949,-10.449632 20.10948,-13.459605 30.37363,-7.329428 11.39514,6.805657 14.65886,22.079681 7.88845,33.292974 -7.45127,12.340958 -24.05014,15.858519 -36.21232,8.447477 -13.287,-8.096456 -17.0585,-26.020816 -9.0065,-39.131668 8.74131,-14.233232 27.99166,-18.258743 42.05101,-9.565525 6.93753,4.289631 12.01329,11.235972 14.08431,19.116819" />
    <path
       sodipodi:type="spiral"
       style="fill:none;fill-rule:evenodd;stroke:#000000"
       id="path492-82-274"
       sodipodi:cx="212.42902"
       sodipodi:cy="68.573578"
       sodipodi:expansion="1"
       sodipodi:revolution="3.8707526"
       sodipodi:radius="32.54213"
       sodipodi:argument="-18.253357"
       sodipodi:t0="0"
       transform="matrix(0.05077049,0,0,0.04737985,120.08154,77.11507)"
       d="m 212.42902,68.573578 c 1.0464,0.710057 -0.44089,1.760843 -1.18017,1.739185 -2.00339,-0.05869 -2.78365,-2.460977 -2.2982,-4.099507 0.86834,-2.930947 4.38955,-3.929101 7.01885,-2.857235 3.8586,1.573008 5.10212,6.34199 3.41626,9.938202 -2.24699,4.793185 -8.30259,6.286504 -12.85755,3.975282 -5.73195,-2.908436 -7.47669,-10.267012 -4.53431,-15.776894 3.56362,-6.673205 12.23357,-8.670221 18.69624,-5.093331 7.61604,4.21524 9.86585,14.201456 5.65236,21.615587 -4.86465,8.559908 -16.17023,11.062878 -24.53493,6.21138 -9.50451,-5.51258 -12.26089,-18.139629 -6.77041,-27.454281 6.15949,-10.449632 20.10948,-13.459605 30.37363,-7.329428 11.39514,6.805657 14.65886,22.079681 7.88845,33.292974 -7.45127,12.340958 -24.05014,15.858519 -36.21232,8.447477 -13.287,-8.096456 -17.0585,-26.020816 -9.0065,-39.131668 8.74131,-14.233232 27.99166,-18.258743 42.05101,-9.565525 6.93753,4.289631 12.01329,11.235972 14.08431,19.116819" />
    <path
       sodipodi:type="spiral"
       style="fill:none;fill-rule:evenodd;stroke:#000000"
       id="path492-82-0"
       sodipodi:cx="212.42902"
       sodipodi:cy="68.573578"
       sodipodi:expansion="1"
       sodipodi:revolution="3.8707526"
       sodipodi:radius="32.54213"
       sodipodi:argument="-18.253357"
       sodipodi:t0="0"
       transform="matrix(0.05077049,0,0,0.04737985,173.92018,22.093159)"
       d="m 212.42902,68.573578 c 1.0464,0.710057 -0.44089,1.760843 -1.18017,1.739185 -2.00339,-0.05869 -2.78365,-2.460977 -2.2982,-4.099507 0.86834,-2.930947 4.38955,-3.929101 7.01885,-2.857235 3.8586,1.573008 5.10212,6.34199 3.41626,9.938202 -2.24699,4.793185 -8.30259,6.286504 -12.85755,3.975282 -5.73195,-2.908436 -7.47669,-10.267012 -4.53431,-15.776894 3.56362,-6.673205 12.23357,-8.670221 18.69624,-5.093331 7.61604,4.21524 9.86585,14.201456 5.65236,21.615587 -4.86465,8.559908 -16.17023,11.062878 -24.53493,6.21138 -9.50451,-5.51258 -12.26089,-18.139629 -6.77041,-27.454281 6.15949,-10.449632 20.10948,-13.459605 30.37363,-7.329428 11.39514,6.805657 14.65886,22.079681 7.88845,33.292974 -7.45127,12.340958 -24.05014,15.858519 -36.21232,8.447477 -13.287,-8.096456 -17.0585,-26.020816 -9.0065,-39.131668 8.74131,-14.233232 27.99166,-18.258743 42.05101,-9.565525 6.93753,4.289631 12.01329,11.235972 14.08431,19.116819" />
    <path
       sodipodi:type="spiral"
       style="fill:none;fill-rule:evenodd;stroke:#000000"
       id="path492-82-27"
       sodipodi:cx="212.42902"
       sodipodi:cy="68.573578"
       sodipodi:expansion="1"
       sodipodi:revolution="3.8707526"
       sodipodi:radius="32.54213"
       sodipodi:argument="-18.253357"
       sodipodi:t0="0"
       transform="matrix(0.05077049,0,0,0.04737985,157.94608,72.776425)"
       d="m 212.42902,68.573578 c 1.0464,0.710057 -0.44089,1.760843 -1.18017,1.739185 -2.00339,-0.05869 -2.78365,-2.460977 -2.2982,-4.099507 0.86834,-2.930947 4.38955,-3.929101 7.01885,-2.857235 3.8586,1.573008 5.10212,6.34199 3.41626,9.938202 -2.24699,4.793185 -8.30259,6.286504 -12.85755,3.975282 -5.73195,-2.908436 -7.47669,-10.267012 -4.53431,-15.776894 3.56362,-6.673205 12.23357,-8.670221 18.69624,-5.093331 7.61604,4.21524 9.86585,14.201456 5.65236,21.615587 -4.86465,8.559908 -16.17023,11.062878 -24.53493,6.21138 -9.50451,-5.51258 -12.26089,-18.139629 -6.77041,-27.454281 6.15949,-10.449632 20.10948,-13.459605 30.37363,-7.329428 11.39514,6.805657 14.65886,22.079681 7.88845,33.292974 -7.45127,12.340958 -24.05014,15.858519 -36.21232,8.447477 -13.287,-8.096456 -17.0585,-26.020816 -9.0065,-39.131668 8.74131,-14.233232 27.99166,-18.258743 42.05101,-9.565525 6.93753,4.289631 12.01329,11.235972 14.08431,19.116819" />
    <path
       sodipodi:type="spiral"
       style="fill:none;fill-rule:evenodd;stroke:#000000"
       id="path492-82-88"
       sodipodi:cx="212.42902"
       sodipodi:cy="68.573578"
       sodipodi:expansion="1"
       sodipodi:revolution="3.8707526"
       sodipodi:radius="32.54213"
       sodipodi:argument="-18.253357"
       sodipodi:t0="0"
       transform="matrix(0.05077049,0,0,0.04737985,122.25086,68.043357)"
       d="m 212.42902,68.573578 c 1.0464,0.710057 -0.44089,1.760843 -1.18017,1.739185 -2.00339,-0.05869 -2.78365,-2.460977 -2.2982,-4.099507 0.86834,-2.930947 4.38955,-3.929101 7.01885,-2.857235 3.8586,1.573008 5.10212,6.34199 3.41626,9.938202 -2.24699,4.793185 -8.30259,6.286504 -12.85755,3.975282 -5.73195,-2.908436 -7.47669,-10.267012 -4.53431,-15.776894 3.56362,-6.673205 12.23357,-8.670221 18.69624,-5.093331 7.61604,4.21524 9.86585,14.201456 5.65236,21.615587 -4.86465,8.559908 -16.17023,11.062878 -24.53493,6.21138 -9.50451,-5.51258 -12.26089,-18.139629 -6.77041,-27.454281 6.15949,-10.449632 20.10948,-13.459605 30.37363,-7.329428 11.39514,6.805657 14.65886,22.079681 7.88845,33.292974 -7.45127,12.340958 -24.05014,15.858519 -36.21232,8.447477 -13.287,-8.096456 -17.0585,-26.020816 -9.0065,-39.131668 8.74131,-14.233232 27.99166,-18.258743 42.05101,-9.565525 6.93753,4.289631 12.01329,11.235972 14.08431,19.116819" />
    <path
       sodipodi:type="spiral"
       style="fill:none;fill-rule:evenodd;stroke:#000000"
       id="path492-82-51"
       sodipodi:cx="212.42902"
       sodipodi:cy="68.573578"
       sodipodi:expansion="1"
       sodipodi:revolution="3.8707526"
       sodipodi:radius="32.54213"
       sodipodi:argument="-18.253357"
       sodipodi:t0="0"
       transform="matrix(0.05077049,0,0,0.04737985,101.14927,69.423836)"
       d="m 212.42902,68.573578 c 1.0464,0.710057 -0.44089,1.760843 -1.18017,1.739185 -2.00339,-0.05869 -2.78365,-2.460977 -2.2982,-4.099507 0.86834,-2.930947 4.38955,-3.929101 7.01885,-2.857235 3.8586,1.573008 5.10212,6.34199 3.41626,9.938202 -2.24699,4.793185 -8.30259,6.286504 -12.85755,3.975282 -5.73195,-2.908436 -7.47669,-10.267012 -4.53431,-15.776894 3.56362,-6.673205 12.23357,-8.670221 18.69624,-5.093331 7.61604,4.21524 9.86585,14.201456 5.65236,21.615587 -4.86465,8.559908 -16.17023,11.062878 -24.53493,6.21138 -9.50451,-5.51258 -12.26089,-18.139629 -6.77041,-27.454281 6.15949,-10.449632 20.10948,-13.459605 30.37363,-7.329428 11.39514,6.805657 14.65886,22.079681 7.88845,33.292974 -7.45127,12.340958 -24.05014,15.858519 -36.21232,8.447477 -13.287,-8.096456 -17.0585,-26.020816 -9.0065,-39.131668 8.74131,-14.233232 27.99166,-18.258743 42.05101,-9.565525 6.93753,4.289631 12.01329,11.235972 14.08431,19.116819" />
    <path
       sodipodi:type="spiral"
       style="fill:none;fill-rule:evenodd;stroke:#000000"
       id="path492-82-5"
       sodipodi:cx="212.42902"
       sodipodi:cy="68.573578"
       sodipodi:expansion="1"
       sodipodi:revolution="3.8707526"
       sodipodi:radius="32.54213"
       sodipodi:argument="-18.253357"
       sodipodi:t0="0"
       transform="matrix(0.05077049,0,0,0.04737985,19.306642,6.119056)"
       d="m 212.42902,68.573578 c 1.0464,0.710057 -0.44089,1.760843 -1.18017,1.739185 -2.00339,-0.05869 -2.78365,-2.460977 -2.2982,-4.099507 0.86834,-2.930947 4.38955,-3.929101 7.01885,-2.857235 3.8586,1.573008 5.10212,6.34199 3.41626,9.938202 -2.24699,4.793185 -8.30259,6.286504 -12.85755,3.975282 -5.73195,-2.908436 -7.47669,-10.267012 -4.53431,-15.776894 3.56362,-6.673205 12.23357,-8.670221 18.69624,-5.093331 7.61604,4.21524 9.86585,14.201456 5.65236,21.615587 -4.86465,8.559908 -16.17023,11.062878 -24.53493,6.21138 -9.50451,-5.51258 -12.26089,-18.139629 -6.77041,-27.454281 6.15949,-10.449632 20.10948,-13.459605 30.37363,-7.329428 11.39514,6.805657 14.65886,22.079681 7.88845,33.292974 -7.45127,12.340958 -24.05014,15.858519 -36.21232,8.447477 -13.287,-8.096456 -17.0585,-26.020816 -9.0065,-39.131668 8.74131,-14.233232 27.99166,-18.258743 42.05101,-9.565525 6.93753,4.289631 12.01329,11.235972 14.08431,19.116819" />
    <path
       sodipodi:type="spiral"
       style="fill:none;fill-rule:evenodd;stroke:#000000"
       id="path492-82-83"
       sodipodi:cx="212.42902"
       sodipodi:cy="68.573578"
       sodipodi:expansion="1"
       sodipodi:revolution="3.8707526"
       sodipodi:radius="32.54213"
       sodipodi:argument="-18.253357"
       sodipodi:t0="0"
       transform="matrix(0.05077049,0,0,0.04737985,-2.189374,31.164872)"
       d="m 212.42902,68.573578 c 1.0464,0.710057 -0.44089,1.760843 -1.18017,1.739185 -2.00339,-0.05869 -2.78365,-2.460977 -2.2982,-4.099507 0.86834,-2.930947 4.38955,-3.929101 7.01885,-2.857235 3.8586,1.573008 5.10212,6.34199 3.41626,9.938202 -2.24699,4.793185 -8.30259,6.286504 -12.85755,3.975282 -5.73195,-2.908436 -7.47669,-10.267012 -4.53431,-15.776894 3.56362,-6.673205 12.23357,-8.670221 18.69624,-5.093331 7.61604,4.21524 9.86585,14.201456 5.65236,21.615587 -4.86465,8.559908 -16.17023,11.062878 -24.53493,6.21138 -9.50451,-5.51258 -12.26089,-18.139629 -6.77041,-27.454281 6.15949,-10.449632 20.10948,-13.459605 30.37363,-7.329428 11.39514,6.805657 14.65886,22.079681 7.88845,33.292974 -7.45127,12.340958 -24.05014,15.858519 -36.21232,8.447477 -13.287,-8.096456 -17.0585,-26.020816 -9.0065,-39.131668 8.74131,-14.233232 27.99166,-18.258743 42.05101,-9.565525 6.93753,4.289631 12.01329,11.235972 14.08431,19.116819" />
    <path
       sodipodi:type="spiral"
       style="fill:none;fill-rule:evenodd;stroke:#000000"
       id="path492-82-66"
       sodipodi:cx="212.42902"
       sodipodi:cy="68.573578"
       sodipodi:expansion="1"
       sodipodi:revolution="3.8707526"
       sodipodi:radius="32.54213"
       sodipodi:argument="-18.253357"
       sodipodi:t0="0"
       transform="matrix(0.05077049,0,0,0.04737985,1.557638,65.676824)"
       d="m 212.42902,68.573578 c 1.0464,0.710057 -0.44089,1.760843 -1.18017,1.739185 -2.00339,-0.05869 -2.78365,-2.460977 -2.2982,-4.099507 0.86834,-2.930947 4.38955,-3.929101 7.01885,-2.857235 3.8586,1.573008 5.10212,6.34199 3.41626,9.938202 -2.24699,4.793185 -8.30259,6.286504 -12.85755,3.975282 -5.73195,-2.908436 -7.47669,-10.267012 -4.53431,-15.776894 3.56362,-6.673205 12.23357,-8.670221 18.69624,-5.093331 7.61604,4.21524 9.86585,14.201456 5.65236,21.615587 -4.86465,8.559908 -16.17023,11.062878 -24.53493,6.21138 -9.50451,-5.51258 -12.26089,-18.139629 -6.77041,-27.454281 6.15949,-10.449632 20.10948,-13.459605 30.37363,-7.329428 11.39514,6.805657 14.65886,22.079681 7.88845,33.292974 -7.45127,12.340958 -24.05014,15.858519 -36.21232,8.447477 -13.287,-8.096456 -17.0585,-26.020816 -9.0065,-39.131668 8.74131,-14.233232 27.99166,-18.258743 42.05101,-9.565525 6.93753,4.289631 12.01329,11.235972 14.08431,19.116819" />
    <path
       sodipodi:type="spiral"
       style="fill:none;fill-rule:evenodd;stroke:#000000"
       id="path492-82-39"
       sodipodi:cx="212.42902"
       sodipodi:cy="68.573578"
       sodipodi:expansion="1"
       sodipodi:revolution="3.8707526"
       sodipodi:radius="32.54213"
       sodipodi:argument="-18.253357"
       sodipodi:t0="0"
       transform="matrix(0.05077049,0,0,0.04737985,21.870387,62.718656)"
       d="m 212.42902,68.573578 c 1.0464,0.710057 -0.44089,1.760843 -1.18017,1.739185 -2.00339,-0.05869 -2.78365,-2.460977 -2.2982,-4.099507 0.86834,-2.930947 4.38955,-3.929101 7.01885,-2.857235 3.8586,1.573008 5.10212,6.34199 3.41626,9.938202 -2.24699,4.793185 -8.30259,6.286504 -12.85755,3.975282 -5.73195,-2.908436 -7.47669,-10.267012 -4.53431,-15.776894 3.56362,-6.673205 12.23357,-8.670221 18.69624,-5.093331 7.61604,4.21524 9.86585,14.201456 5.65236,21.615587 -4.86465,8.559908 -16.17023,11.062878 -24.53493,6.21138 -9.50451,-5.51258 -12.26089,-18.139629 -6.77041,-27.454281 6.15949,-10.449632 20.10948,-13.459605 30.37363,-7.329428 11.39514,6.805657 14.65886,22.079681 7.88845,33.292974 -7.45127,12.340958 -24.05014,15.858519 -36.21232,8.447477 -13.287,-8.096456 -17.0585,-26.020816 -9.0065,-39.131668 8.74131,-14.233232 27.99166,-18.258743 42.05101,-9.565525 6.93753,4.289631 12.01329,11.235972 14.08431,19.116819" />
    <path
       sodipodi:type="spiral"
       style="fill:none;fill-rule:evenodd;stroke:#000000"
       id="path492-82-84"
       sodipodi:cx="212.42902"
       sodipodi:cy="68.573578"
       sodipodi:expansion="1"
       sodipodi:revolution="3.8707526"
       sodipodi:radius="32.54213"
       sodipodi:argument="-18.253357"
       sodipodi:t0="0"
       transform="matrix(0.05077049,0,0,0.04737985,42.774769,50.688776)"
       d="m 212.42902,68.573578 c 1.0464,0.710057 -0.44089,1.760843 -1.18017,1.739185 -2.00339,-0.05869 -2.78365,-2.460977 -2.2982,-4.099507 0.86834,-2.930947 4.38955,-3.929101 7.01885,-2.857235 3.8586,1.573008 5.10212,6.34199 3.41626,9.938202 -2.24699,4.793185 -8.30259,6.286504 -12.85755,3.975282 -5.73195,-2.908436 -7.47669,-10.267012 -4.53431,-15.776894 3.56362,-6.673205 12.23357,-8.670221 18.69624,-5.093331 7.61604,4.21524 9.86585,14.201456 5.65236,21.615587 -4.86465,8.559908 -16.17023,11.062878 -24.53493,6.21138 -9.50451,-5.51258 -12.26089,-18.139629 -6.77041,-27.454281 6.15949,-10.449632 20.10948,-13.459605 30.37363,-7.329428 11.39514,6.805657 14.65886,22.079681 7.88845,33.292974 -7.45127,12.340958 -24.05014,15.858519 -36.21232,8.447477 -13.287,-8.096456 -17.0585,-26.020816 -9.0065,-39.131668 8.74131,-14.233232 27.99166,-18.258743 42.05101,-9.565525 6.93753,4.289631 12.01329,11.235972 14.08431,19.116819" />
    <path
       sodipodi:type="spiral"
       style="fill:none;fill-rule:evenodd;stroke:#000000"
       id="path492-82-4"
       sodipodi:cx="212.42902"
       sodipodi:cy="68.573578"
       sodipodi:expansion="1"
       sodipodi:revolution="3.8707526"
       sodipodi:radius="32.54213"
       sodipodi:argument="-18.253357"
       sodipodi:t0="0"
       transform="matrix(0.05077049,0,0,0.04737985,52.240904,29.784394)"
       d="m 212.42902,68.573578 c 1.0464,0.710057 -0.44089,1.760843 -1.18017,1.739185 -2.00339,-0.05869 -2.78365,-2.460977 -2.2982,-4.099507 0.86834,-2.930947 4.38955,-3.929101 7.01885,-2.857235 3.8586,1.573008 5.10212,6.34199 3.41626,9.938202 -2.24699,4.793185 -8.30259,6.286504 -12.85755,3.975282 -5.73195,-2.908436 -7.47669,-10.267012 -4.53431,-15.776894 3.56362,-6.673205 12.23357,-8.670221 18.69624,-5.093331 7.61604,4.21524 9.86585,14.201456 5.65236,21.615587 -4.86465,8.559908 -16.17023,11.062878 -24.53493,6.21138 -9.50451,-5.51258 -12.26089,-18.139629 -6.77041,-27.454281 6.15949,-10.449632 20.10948,-13.459605 30.37363,-7.329428 11.39514,6.805657 14.65886,22.079681 7.88845,33.292974 -7.45127,12.340958 -24.05014,15.858519 -36.21232,8.447477 -13.287,-8.096456 -17.0585,-26.020816 -9.0065,-39.131668 8.74131,-14.233232 27.99166,-18.258743 42.05101,-9.565525 6.93753,4.289631 12.01329,11.235972 14.08431,19.116819" />
    <path
       sodipodi:type="spiral"
       style="fill:none;fill-rule:evenodd;stroke:#000000"
       id="path492-82-3"
       sodipodi:cx="212.42902"
       sodipodi:cy="68.573578"
       sodipodi:expansion="1"
       sodipodi:revolution="3.8707526"
       sodipodi:radius="32.54213"
       sodipodi:argument="-18.253357"
       sodipodi:t0="0"
       transform="matrix(0.05077049,0,0,0.04737985,81.230944,27.220649)"
       d="m 212.42902,68.573578 c 1.0464,0.710057 -0.44089,1.760843 -1.18017,1.739185 -2.00339,-0.05869 -2.78365,-2.460977 -2.2982,-4.099507 0.86834,-2.930947 4.38955,-3.929101 7.01885,-2.857235 3.8586,1.573008 5.10212,6.34199 3.41626,9.938202 -2.24699,4.793185 -8.30259,6.286504 -12.85755,3.975282 -5.73195,-2.908436 -7.47669,-10.267012 -4.53431,-15.776894 3.56362,-6.673205 12.23357,-8.670221 18.69624,-5.093331 7.61604,4.21524 9.86585,14.201456 5.65236,21.615587 -4.86465,8.559908 -16.17023,11.062878 -24.53493,6.21138 -9.50451,-5.51258 -12.26089,-18.139629 -6.77041,-27.454281 6.15949,-10.449632 20.10948,-13.459605 30.37363,-7.329428 11.39514,6.805657 14.65886,22.079681 7.88845,33.292974 -7.45127,12.340958 -24.05014,15.858519 -36.21232,8.447477 -13.287,-8.096456 -17.0585,-26.020816 -9.0065,-39.131668 8.74131,-14.233232 27.99166,-18.258743 42.05101,-9.565525 6.93753,4.289631 12.01329,11.235972 14.08431,19.116819" />
    <path
       sodipodi:type="spiral"
       style="fill:none;fill-rule:evenodd;stroke:#000000"
       id="path492-82-8"
       sodipodi:cx="212.42902"
       sodipodi:cy="68.573578"
       sodipodi:expansion="1"
       sodipodi:revolution="3.8707526"
       sodipodi:radius="32.54213"
       sodipodi:argument="-18.253357"
       sodipodi:t0="0"
       transform="matrix(0.05077049,0,0,0.04737985,117.71501,23.473637)"
       d="m 212.42902,68.573578 c 1.0464,0.710057 -0.44089,1.760843 -1.18017,1.739185 -2.00339,-0.05869 -2.78365,-2.460977 -2.2982,-4.099507 0.86834,-2.930947 4.38955,-3.929101 7.01885,-2.857235 3.8586,1.573008 5.10212,6.34199 3.41626,9.938202 -2.24699,4.793185 -8.30259,6.286504 -12.85755,3.975282 -5.73195,-2.908436 -7.47669,-10.267012 -4.53431,-15.776894 3.56362,-6.673205 12.23357,-8.670221 18.69624,-5.093331 7.61604,4.21524 9.86585,14.201456 5.65236,21.615587 -4.86465,8.559908 -16.17023,11.062878 -24.53493,6.21138 -9.50451,-5.51258 -12.26089,-18.139629 -6.77041,-27.454281 6.15949,-10.449632 20.10948,-13.459605 30.37363,-7.329428 11.39514,6.805657 14.65886,22.079681 7.88845,33.292974 -7.45127,12.340958 -24.05014,15.858519 -36.21232,8.447477 -13.287,-8.096456 -17.0585,-26.020816 -9.0065,-39.131668 8.74131,-14.233232 27.99166,-18.258743 42.05101,-9.565525 6.93753,4.289631 12.01329,11.235972 14.08431,19.116819" />
    <path
       sodipodi:type="spiral"
       style="fill:none;fill-rule:evenodd;stroke:#000000"
       id="path492-82-7"
       sodipodi:cx="212.42902"
       sodipodi:cy="68.573578"
       sodipodi:expansion="1"
       sodipodi:revolution="3.8707526"
       sodipodi:radius="32.54213"
       sodipodi:argument="-18.253357"
       sodipodi:t0="0"
       transform="matrix(0.05077049,0,0,0.04737985,136.84449,11.049334)"
       d="m 212.42902,68.573578 c 1.0464,0.710057 -0.44089,1.760843 -1.18017,1.739185 -2.00339,-0.05869 -2.78365,-2.460977 -2.2982,-4.099507 0.86834,-2.930947 4.38955,-3.929101 7.01885,-2.857235 3.8586,1.573008 5.10212,6.34199 3.41626,9.938202 -2.24699,4.793185 -8.30259,6.286504 -12.85755,3.975282 -5.73195,-2.908436 -7.47669,-10.267012 -4.53431,-15.776894 3.56362,-6.673205 12.23357,-8.670221 18.69624,-5.093331 7.61604,4.21524 9.86585,14.201456 5.65236,21.615587 -4.86465,8.559908 -16.17023,11.062878 -24.53493,6.21138 -9.50451,-5.51258 -12.26089,-18.139629 -6.77041,-27.454281 6.15949,-10.449632 20.10948,-13.459605 30.37363,-7.329428 11.39514,6.805657 14.65886,22.079681 7.88845,33.292974 -7.45127,12.340958 -24.05014,15.858519 -36.21232,8.447477 -13.287,-8.096456 -17.0585,-26.020816 -9.0065,-39.131668 8.74131,-14.233232 27.99166,-18.258743 42.05101,-9.565525 6.93753,4.289631 12.01329,11.235972 14.08431,19.116819" />
    <path
       sodipodi:type="spiral"
       style="fill:none;fill-rule:evenodd;stroke:#000000"
       id="path492-82-2"
       sodipodi:cx="212.42902"
       sodipodi:cy="68.573578"
       sodipodi:expansion="1"
       sodipodi:revolution="3.8707526"
       sodipodi:radius="32.54213"
       sodipodi:argument="-18.253357"
       sodipodi:t0="0"
       transform="matrix(0.05077049,0,0,0.04737985,153.41022,24.459693)"
       d="m 212.42902,68.573578 c 1.0464,0.710057 -0.44089,1.760843 -1.18017,1.739185 -2.00339,-0.05869 -2.78365,-2.460977 -2.2982,-4.099507 0.86834,-2.930947 4.38955,-3.929101 7.01885,-2.857235 3.8586,1.573008 5.10212,6.34199 3.41626,9.938202 -2.24699,4.793185 -8.30259,6.286504 -12.85755,3.975282 -5.73195,-2.908436 -7.47669,-10.267012 -4.53431,-15.776894 3.56362,-6.673205 12.23357,-8.670221 18.69624,-5.093331 7.61604,4.21524 9.86585,14.201456 5.65236,21.615587 -4.86465,8.559908 -16.17023,11.062878 -24.53493,6.21138 -9.50451,-5.51258 -12.26089,-18.139629 -6.77041,-27.454281 6.15949,-10.449632 20.10948,-13.459605 30.37363,-7.329428 11.39514,6.805657 14.65886,22.079681 7.88845,33.292974 -7.45127,12.340958 -24.05014,15.858519 -36.21232,8.447477 -13.287,-8.096456 -17.0585,-26.020816 -9.0065,-39.131668 8.74131,-14.233232 27.99166,-18.258743 42.05101,-9.565525 6.93753,4.289631 12.01329,11.235972 14.08431,19.116819" />
    <path
       sodipodi:type="spiral"
       style="fill:none;fill-rule:evenodd;stroke:#000000"
       id="path492-82-6"
       sodipodi:cx="212.42902"
       sodipodi:cy="68.573578"
       sodipodi:expansion="1"
       sodipodi:revolution="3.8707526"
       sodipodi:radius="32.54213"
       sodipodi:argument="-18.253357"
       sodipodi:t0="0"
       transform="matrix(0.05077049,0,0,0.04737985,144.93015,38.856107)"
       d="m 212.42902,68.573578 c 1.0464,0.710057 -0.44089,1.760843 -1.18017,1.739185 -2.00339,-0.05869 -2.78365,-2.460977 -2.2982,-4.099507 0.86834,-2.930947 4.38955,-3.929101 7.01885,-2.857235 3.8586,1.573008 5.10212,6.34199 3.41626,9.938202 -2.24699,4.793185 -8.30259,6.286504 -12.85755,3.975282 -5.73195,-2.908436 -7.47669,-10.267012 -4.53431,-15.776894 3.56362,-6.673205 12.23357,-8.670221 18.69624,-5.093331 7.61604,4.21524 9.86585,14.201456 5.65236,21.615587 -4.86465,8.559908 -16.17023,11.062878 -24.53493,6.21138 -9.50451,-5.51258 -12.26089,-18.139629 -6.77041,-27.454281 6.15949,-10.449632 20.10948,-13.459605 30.37363,-7.329428 11.39514,6.805657 14.65886,22.079681 7.88845,33.292974 -7.45127,12.340958 -24.05014,15.858519 -36.21232,8.447477 -13.287,-8.096456 -17.0585,-26.020816 -9.0065,-39.131668 8.74131,-14.233232 27.99166,-18.258743 42.05101,-9.565525 6.93753,4.289631 12.01329,11.235972 14.08431,19.116819" />
    <path
       sodipodi:type="spiral"
       style="fill:none;fill-rule:evenodd;stroke:#000000"
       id="path492-82-9"
       sodipodi:cx="212.42902"
       sodipodi:cy="68.573578"
       sodipodi:expansion="1"
       sodipodi:revolution="3.8707526"
       sodipodi:radius="32.54213"
       sodipodi:argument="-18.253357"
       sodipodi:t0="0"
       transform="matrix(0.05077049,0,0,0.04737985,92.077557,31.559294)"
       d="m 212.42902,68.573578 c 1.0464,0.710057 -0.44089,1.760843 -1.18017,1.739185 -2.00339,-0.05869 -2.78365,-2.460977 -2.2982,-4.099507 0.86834,-2.930947 4.38955,-3.929101 7.01885,-2.857235 3.8586,1.573008 5.10212,6.34199 3.41626,9.938202 -2.24699,4.793185 -8.30259,6.286504 -12.85755,3.975282 -5.73195,-2.908436 -7.47669,-10.267012 -4.53431,-15.776894 3.56362,-6.673205 12.23357,-8.670221 18.69624,-5.093331 7.61604,4.21524 9.86585,14.201456 5.65236,21.615587 -4.86465,8.559908 -16.17023,11.062878 -24.53493,6.21138 -9.50451,-5.51258 -12.26089,-18.139629 -6.77041,-27.454281 6.15949,-10.449632 20.10948,-13.459605 30.37363,-7.329428 11.39514,6.805657 14.65886,22.079681 7.88845,33.292974 -7.45127,12.340958 -24.05014,15.858519 -36.21232,8.447477 -13.287,-8.096456 -17.0585,-26.020816 -9.0065,-39.131668 8.74131,-14.233232 27.99166,-18.258743 42.05101,-9.565525 6.93753,4.289631 12.01329,11.235972 14.08431,19.116819" />
    <g
       id="g406"
       transform="translate(-12.84721,3.4581642)">
      <g
         id="g430">
        <g
           id="g535">
          <g
             id="g531" />
        </g>
      </g>
    </g>
    <g
       id="g591"
       style="fill:#917c6f">
      <g
         id="g423"
         transform="translate(0,3.2609558)"
         style="fill:#917c6f">
        <g
           id="g418"
           style="fill:#917c6f">
          <g
             id="g414"
             style="fill:#917c6f">
            <g
               id="g538"
               style="fill:#917c6f">
              <g
                 id="g987"
                 style="fill:#917c6f">
                <circle
                   style="fill:#917c6f;stroke-width:0.264583"
                   id="path333"
                   cx="24.207363"
                   cy="46.739044"
                   r="12" />
                <circle
                   style="fill:#917c6f;stroke-width:0.264583"
                   id="path333-3"
                   cx="175.79263"
                   cy="46.739044"
                   r="12" />
                <circle
                   style="fill:#917c6f;stroke-width:0.264583"
                   id="path333-2"
                   cx="125.26421"
                   cy="46.739044"
                   r="12" />
                <circle
                   style="fill:#917c6f;stroke-width:0.264583"
                   id="path333-5"
                   cx="74.735786"
                   cy="46.739044"
                   r="12" />
              </g>
            </g>
          </g>
        </g>
      </g>
    </g>
    <path
       sodipodi:type="spiral"
       style="fill:none;fill-rule:evenodd;stroke:#000000"
       id="path492"
       sodipodi:cx="212.42902"
       sodipodi:cy="68.573578"
       sodipodi:expansion="1"
       sodipodi:revolution="3"
       sodipodi:radius="25.221548"
       sodipodi:argument="-18.253357"
       sodipodi:t0="0"
       d="m 212.42902,68.573578 c 1.0464,0.710057 -0.44089,1.760843 -1.18016,1.739185 -2.0034,-0.05869 -2.78366,-2.460977 -2.29821,-4.099507 0.86834,-2.930946 4.38955,-3.9291 7.01885,-2.857234 3.8586,1.573008 5.10212,6.341988 3.41626,9.9382 -2.24699,4.793184 -8.30259,6.286503 -12.85755,3.975282 -5.73195,-2.908436 -7.47669,-10.267011 -4.5343,-15.776892 3.56361,-6.673204 12.23356,-8.670219 18.69623,-5.09333 7.61604,4.215239 9.86585,14.201454 5.65236,21.615584 -4.86465,8.559906 -16.17023,11.062875 -24.53493,6.211379 -9.50451,-5.512579 -12.26089,-18.139627 -6.77041,-27.454277 6.15949,-10.44963 20.10948,-13.459602 30.37363,-7.329427 11.39514,6.805656 14.65885,22.079677 7.88845,33.292969"
       transform="scale(0.26458333)" />
  </g>
</svg>
